<?xml version="1.0" standalone="no"?>
<!DOCTYPE svg PUBLIC "-//W3C//DTD SVG 20010904//EN"
 "http://www.w3.org/TR/2001/REC-SVG-20010904/DTD/svg10.dtd">
<svg version="1.0" xmlns="http://www.w3.org/2000/svg"
 width="600.000000pt" height="400.000000pt" viewBox="0 0 600.000000 400.000000"
 preserveAspectRatio="xMidYMid meet">
<g transform="translate(0.000000,400.000000) scale(0.100000,-0.100000)"
fill="#000000" stroke="none">
<path d="M100 3917 l-25 -13 0 -1884 0 -1885 5 1882 c3 1035 9 1885 13 1890 5
4 237 8 517 8 279 0 503 3 497 7 -7 4 -230 8 -497 8 -371 0 -491 -3 -510 -13z"/>
<path d="M1135 2010 c0 -1037 1 -1461 2 -942 2 518 2 1366 0 1885 -1 518 -2
94 -2 -943z"/>
<path d="M1834 3874 c3 -9 6 -22 6 -30 0 -23 27 -16 34 9 10 37 6 44 -9 17
-14 -25 -14 -25 -15 -2 0 12 -5 22 -11 22 -6 0 -8 -7 -5 -16z"/>
<path d="M1892 3863 c2 -20 9 -29 26 -31 19 -3 22 1 21 30 -2 30 -2 31 -6 6
-5 -35 -23 -37 -23 -3 0 14 -5 25 -11 25 -6 0 -9 -12 -7 -27z"/>
<path d="M1950 3860 c0 -26 3 -30 28 -29 16 1 20 3 10 6 -21 5 -24 23 -5 23 8
0 8 3 -2 9 -11 7 -10 10 5 14 13 3 11 5 -8 6 -25 1 -28 -3 -28 -29z"/>
<path d="M2020 3860 c0 -25 4 -30 24 -30 13 0 26 7 30 15 9 25 -4 45 -30 45
-20 0 -24 -5 -24 -30z m40 6 c0 -8 -4 -18 -10 -21 -5 -3 -10 3 -10 14 0 12 5
21 10 21 6 0 10 -6 10 -14z"/>
<path d="M2088 3860 c-4 -27 -2 -30 21 -29 17 1 20 3 9 6 -21 5 -24 23 -5 23
8 0 8 3 -2 9 -11 7 -10 10 5 14 17 4 17 5 -2 6 -17 1 -23 -6 -26 -29z"/>
<path d="M2154 3860 c-1 -34 1 -36 23 -14 13 13 14 17 3 24 -10 6 -8 9 6 13
15 4 13 5 -6 6 -21 1 -25 -4 -26 -29z"/>
<path d="M2203 3860 c-7 -19 -8 -30 -1 -30 5 0 12 10 16 22 l5 22 9 -24 c5
-12 11 -21 13 -18 8 7 -13 58 -23 58 -4 0 -13 -13 -19 -30z"/>
<path d="M2257 3878 c-11 -32 32 -64 48 -37 4 6 0 9 -11 7 -11 -2 -20 4 -22
15 -3 15 0 18 17 12 12 -4 21 -2 21 4 0 15 -47 14 -53 -1z"/>
<path d="M2320 3860 c0 -25 4 -30 23 -29 16 1 18 2 5 6 -10 2 -18 8 -18 13 0
5 8 11 18 13 14 4 14 5 -3 7 l-20 1 20 9 c19 8 19 9 -2 9 -19 1 -23 -4 -23
-29z"/>
<path d="M3673 3860 c6 -16 15 -30 19 -30 11 0 30 51 23 58 -3 4 -9 -5 -12
-18 l-6 -24 -8 22 c-5 12 -13 22 -18 22 -5 0 -5 -12 2 -30z"/>
<path d="M3732 3863 c5 -41 42 -39 45 2 2 25 1 26 -5 7 -8 -28 -27 -29 -26 -2
0 11 -3 20 -8 20 -5 0 -8 -12 -6 -27z"/>
<path d="M3790 3860 c0 -26 3 -30 28 -29 16 1 20 3 10 6 -21 5 -23 19 -5 26 6
3 3 6 -8 7 l-20 1 20 9 c19 8 19 9 -2 9 -19 1 -23 -4 -23 -29z"/>
<path d="M3860 3859 c0 -26 3 -30 23 -27 16 2 23 11 25 31 3 23 0 27 -22 27
-22 0 -26 -4 -26 -31z m40 7 c0 -8 -4 -18 -10 -21 -5 -3 -10 3 -10 14 0 12 5
21 10 21 6 0 10 -6 10 -14z"/>
<path d="M3923 3860 c0 -26 4 -30 26 -29 17 1 20 3 9 6 -10 2 -18 9 -18 14 0
5 8 9 18 10 14 0 14 2 -3 8 l-20 8 20 5 c16 5 15 6 -6 7 -22 1 -26 -3 -26 -29z"/>
<path d="M3994 3860 c1 -27 4 -30 26 -28 19 2 25 9 25 28 0 20 -6 26 -26 28
-23 3 -26 0 -25 -28z m39 14 c8 -8 -3 -34 -14 -34 -5 0 -9 9 -9 20 0 19 11 26
23 14z"/>
<path d="M4060 3859 c0 -26 3 -30 23 -27 16 2 23 11 25 31 3 23 0 27 -22 27
-22 0 -26 -4 -26 -31z m35 3 c0 -18 -20 -15 -23 4 -3 10 1 15 10 12 7 -3 13
-10 13 -16z"/>
<path d="M4122 3878 c2 -6 10 -14 18 -16 8 -3 10 0 5 8 -6 10 -4 12 8 7 10 -3
17 -2 17 3 0 6 -12 10 -26 10 -15 0 -24 -5 -22 -12z"/>
<path d="M4150 3850 c0 -5 -8 -7 -17 -3 -14 5 -16 3 -6 -7 6 -7 19 -10 27 -7
18 7 22 27 6 27 -5 0 -10 -4 -10 -10z"/>
<path d="M4856 3844 c-14 -13 -16 -60 -16 -359 0 -299 2 -346 16 -359 14 -14
72 -16 512 -14 l497 3 -494 2 c-345 2 -498 7 -508 14 -20 17 -19 691 1 708 10
8 150 11 514 9 275 -2 498 0 495 5 -2 4 -229 7 -503 7 -440 0 -500 -2 -514
-16z"/>
<path d="M5895 3485 c0 -192 1 -270 2 -172 2 98 2 256 0 350 -1 95 -3 15 -2
-178z"/>
<path d="M182 3813 c16 -4 16 -6 2 -29 -16 -24 -16 -24 12 -23 23 0 25 2 11 8
-17 6 -17 8 -3 20 24 20 19 31 -11 30 -17 -1 -21 -3 -11 -6z"/>
<path d="M231 3807 c-17 -21 -3 -49 23 -45 15 2 21 10 21 28 0 28 -26 38 -44
17z m34 -17 c0 -7 -6 -15 -12 -17 -8 -3 -13 4 -13 17 0 13 5 20 13 18 6 -3 12
-11 12 -18z"/>
<path d="M290 3790 c0 -16 4 -30 10 -30 5 0 7 8 4 18 -5 16 -5 16 9 0 21 -26
27 -22 26 15 0 26 -2 29 -9 12 -7 -18 -8 -19 -15 -2 -11 27 -25 20 -25 -13z"/>
<path d="M350 3790 c0 -24 4 -30 23 -30 18 0 19 2 7 10 -10 6 -11 10 -2 10 6
0 12 5 12 11 0 5 -4 7 -10 4 -5 -3 -10 -2 -10 4 0 5 6 12 13 14 6 3 2 6 -10 6
-19 1 -23 -4 -23 -29z"/>
<path d="M405 3809 c-4 -6 -4 -13 0 -17 4 -4 10 -2 12 5 2 7 11 9 20 6 11 -4
14 -2 9 5 -9 15 -33 16 -41 1z"/>
<path d="M470 3790 c0 -25 4 -30 24 -30 28 0 42 26 25 46 -6 8 -20 14 -30 14
-14 0 -19 -7 -19 -30z m40 0 c0 -11 -4 -20 -10 -20 -5 0 -10 9 -10 20 0 11 5
20 10 20 6 0 10 -9 10 -20z"/>
<path d="M538 3789 c4 -24 9 -29 26 -27 15 2 22 11 24 31 2 15 -1 27 -7 27 -6
0 -11 -11 -11 -25 0 -14 -4 -25 -10 -25 -5 0 -10 11 -10 25 0 14 -4 25 -8 25
-5 0 -7 -14 -4 -31z"/>
<path d="M616 3805 c-13 -34 31 -64 50 -34 4 8 0 9 -15 4 -15 -4 -21 -2 -21 9
0 8 4 17 9 21 11 6 41 -21 41 -36 0 -22 45 -4 48 19 4 26 -21 40 -42 23 -10
-8 -16 -9 -21 -1 -9 15 -42 12 -49 -5z m99 -15 c0 -7 -6 -15 -12 -17 -8 -3
-13 4 -13 17 0 13 5 20 13 18 6 -3 12 -11 12 -18z"/>
<path d="M740 3788 c0 -26 3 -30 11 -18 8 11 12 12 16 3 8 -22 19 -14 18 15 0
20 -6 28 -22 30 -20 3 -23 -1 -23 -30z m30 12 c0 -5 -4 -10 -10 -10 -5 0 -10
5 -10 10 0 6 5 10 10 10 6 0 10 -4 10 -10z"/>
<path d="M801 3788 c0 -18 3 -27 6 -20 2 6 11 12 20 12 20 0 12 34 -10 38 -13
3 -17 -3 -16 -30z m24 12 c3 -5 1 -10 -4 -10 -6 0 -11 5 -11 10 0 6 2 10 4 10
3 0 8 -4 11 -10z"/>
<path d="M852 3790 c1 -21 6 -30 18 -30 29 0 32 13 8 33 -16 13 -18 17 -5 13
9 -3 17 -1 17 4 0 6 -9 10 -19 10 -15 0 -19 -7 -19 -30z"/>
<path d="M426 3778 c5 -8 2 -9 -9 -5 -10 3 -17 2 -17 -4 0 -14 42 -7 48 9 2 6
-4 12 -13 12 -10 0 -13 -5 -9 -12z"/>
<path d="M4976 3739 c-50 -40 -21 -119 44 -119 64 0 91 70 45 115 -30 30 -54
31 -89 4z m90 -24 c19 -28 11 -60 -18 -76 -29 -15 -63 -4 -77 27 -27 60 58
105 95 49z"/>
<path d="M5010 3720 c0 -5 5 -10 11 -10 5 0 7 5 4 10 -3 6 -8 10 -11 10 -2 0
-4 -4 -4 -10z"/>
<path d="M5010 3675 c0 -14 5 -25 10 -25 6 0 10 11 10 25 0 14 -4 25 -10 25
-5 0 -10 -11 -10 -25z"/>
<path d="M5162 3718 c3 -22 38 -39 38 -19 0 6 -7 8 -15 5 -9 -4 -15 0 -15 9 0
9 8 18 18 20 12 3 11 5 -6 6 -19 1 -23 -3 -20 -21z"/>
<path d="M5211 3717 c-1 -16 3 -26 9 -22 5 3 19 1 31 -6 22 -12 38 0 39 29 0
15 -46 16 -56 0 -5 -8 -10 -6 -15 8 -6 16 -8 14 -8 -9z m59 -7 c0 -5 -4 -10
-10 -10 -5 0 -10 5 -10 10 0 6 5 10 10 10 6 0 10 -4 10 -10z"/>
<path d="M2003 3709 c-37 -24 -73 -91 -73 -137 0 -18 -5 -40 -11 -51 -16 -25
-3 -87 23 -113 27 -27 38 -119 17 -145 -21 -25 -149 -83 -184 -83 -17 0 -51
-10 -75 -22 -66 -34 -91 -91 -101 -233 -4 -60 -12 -132 -18 -160 -5 -27 -10
-69 -10 -92 -1 -23 -14 -76 -31 -118 -16 -41 -34 -105 -40 -143 -5 -37 -17
-120 -26 -185 -13 -96 -21 -124 -41 -148 -28 -33 -83 -142 -83 -164 0 -20 19
-19 42 2 19 17 19 15 12 -61 -7 -73 -6 -78 12 -74 12 2 20 13 21 28 3 25 3 25
-7 3 -5 -13 -12 -23 -15 -23 -8 0 2 147 11 161 5 9 2 10 -10 6 -14 -6 -17 -3
-12 8 3 9 2 13 -4 10 -6 -3 -10 2 -10 11 0 10 3 14 7 11 8 -8 33 12 33 26 0 6
-7 2 -15 -9 -12 -16 -14 -16 -15 -3 0 25 24 41 40 26 9 -8 11 -8 6 0 -3 6 1
13 11 16 17 4 17 5 0 6 -16 1 -16 3 -3 24 12 20 24 88 57 327 6 41 22 100 36
130 27 59 48 188 62 375 5 77 14 125 30 159 11 27 24 47 26 44 3 -3 -4 -25
-15 -49 -11 -24 -19 -53 -19 -64 0 -11 7 2 15 28 8 26 19 45 23 42 5 -2 8 3 7
13 0 9 5 16 12 14 8 -1 11 2 8 7 -4 5 7 12 24 16 16 4 32 10 35 15 8 12 -45 4
-58 -9 -16 -16 -32 -14 -18 3 7 8 44 22 83 31 61 14 73 14 87 2 9 -8 48 -17
86 -21 39 -4 81 -10 95 -13 14 -3 22 -2 18 2 -4 4 -47 13 -95 19 l-88 13 38
18 c21 11 36 24 33 31 -3 7 7 20 21 29 23 16 25 21 21 80 -2 42 -10 70 -21 83
-11 11 -15 27 -11 38 4 14 3 15 -4 6 -7 -11 -10 -10 -16 3 -9 25 -7 65 4 65 6
0 10 19 10 43 0 91 64 157 152 157 107 0 157 -61 160 -195 0 -36 3 -44 9 -30
10 25 11 0 2 -34 -6 -23 -7 -24 -14 -5 -7 15 -8 13 -6 -10 1 -17 -4 -31 -11
-34 -11 -3 -12 6 -5 44 11 67 9 157 -5 162 -6 2 -9 9 -6 16 2 6 -8 23 -23 36
-20 18 -23 19 -10 4 9 -11 17 -29 17 -40 0 -11 4 -24 10 -30 15 -15 14 -113
-3 -174 -17 -64 -66 -123 -93 -113 -8 3 -14 0 -14 -7 0 -18 -42 -1 -71 30 -28
28 -49 79 -49 116 0 13 -5 26 -12 30 -17 11 -3 -59 24 -114 12 -26 22 -50 21
-54 -2 -4 9 -16 24 -27 18 -15 21 -21 10 -21 -9 0 -25 12 -38 28 l-22 27 6
-29 c2 -16 1 -43 -4 -59 -5 -17 -7 -33 -4 -35 2 -2 9 15 15 38 8 31 14 39 24
31 16 -13 112 1 129 19 10 10 8 10 -10 1 -33 -17 -78 -13 -104 9 -28 22 -14
27 15 5 24 -18 71 -21 60 -3 -4 7 -3 8 4 4 19 -11 64 25 82 66 l17 39 -5 -74
c-4 -70 -3 -75 21 -94 15 -11 24 -23 21 -26 -3 -3 8 -13 25 -21 43 -23 52 -19
11 5 -34 19 -28 19 33 -3 26 -10 27 -11 10 -23 -18 -13 -148 -32 -191 -28 -12
1 -20 -2 -17 -7 3 -5 -9 -11 -27 -13 -18 -2 -15 -3 7 -1 102 9 223 30 237 42
13 10 27 10 75 -2 80 -18 100 -30 122 -74 24 -47 32 -90 35 -184 4 -113 26
-257 48 -318 38 -106 55 -176 62 -255 4 -44 14 -116 23 -160 11 -56 12 -80 4
-83 -6 -2 -11 -8 -11 -14 0 -7 5 -7 13 1 11 8 19 5 36 -13 14 -15 20 -30 16
-37 -5 -7 -4 -10 3 -5 10 6 25 -22 21 -40 -4 -22 2 -35 12 -28 7 4 10 1 7 -7
-3 -8 -11 -13 -18 -11 -17 4 -8 -19 13 -32 11 -7 20 -7 27 0 13 13 -32 117
-67 155 -30 32 -49 104 -63 234 -16 141 -29 201 -57 263 -15 34 -28 87 -34
145 -6 51 -15 109 -20 130 -6 21 -7 57 -4 81 8 50 -16 158 -43 196 -22 30 -97
70 -132 70 -14 0 -63 18 -108 40 l-82 39 0 59 c0 49 4 64 24 85 26 29 43 101
28 120 -5 7 -12 34 -15 61 -5 54 -28 90 -77 124 -44 30 -131 30 -177 1z m-103
-513 c-19 -13 -41 -21 -49 -18 -9 3 -2 11 20 23 49 26 69 23 29 -5z m-511
-1272 c-18 -22 -34 -1 -19 27 11 20 13 21 22 5 7 -12 6 -22 -3 -32z m1435 -5
c-3 -5 -10 -7 -15 -3 -5 3 -7 10 -3 15 3 5 10 7 15 3 5 -3 7 -10 3 -15z"/>
<path d="M3860 3722 c-64 -31 -100 -85 -100 -151 0 -22 -5 -43 -11 -47 -18
-11 -2 -95 24 -122 18 -19 22 -35 22 -84 l0 -61 -65 -33 c-36 -18 -81 -36
-100 -39 -58 -10 -116 -34 -137 -58 -32 -34 -53 -110 -53 -191 0 -40 -6 -95
-14 -122 -8 -27 -18 -82 -21 -123 -5 -46 -18 -100 -36 -141 -28 -67 -39 -119
-59 -285 -14 -111 -32 -175 -63 -217 -41 -58 -72 -137 -59 -150 10 -10 19 -5
44 19 28 28 29 32 11 30 -12 0 -19 -6 -16 -13 5 -14 -13 -28 -26 -20 -5 3 0
23 10 43 10 21 19 43 19 50 0 6 5 15 12 19 8 5 9 2 5 -10 -6 -14 -3 -15 14 -5
15 8 19 17 15 33 -3 13 -2 26 2 30 4 4 12 26 19 49 12 42 12 42 10 7 -2 -32 1
-36 37 -48 21 -7 40 -11 41 -10 2 2 5 19 9 38 5 31 5 32 -4 10 -14 -32 -14
-32 -42 -25 -22 6 -24 11 -22 58 1 40 0 46 -7 27 -5 -16 -6 -3 -3 40 11 129
35 254 63 325 16 39 32 103 36 141 4 38 13 94 21 125 8 31 14 89 14 128 0 92
30 175 72 201 17 10 51 21 76 25 26 4 76 20 111 36 35 16 66 27 69 24 3 -2
-18 -15 -45 -28 l-51 -23 24 -21 c13 -12 26 -18 29 -13 3 4 -2 10 -10 14 -24
9 -18 23 18 37 17 8 35 14 39 14 10 0 68 84 68 100 0 2 -7 2 -15 -1 -8 -4 -15
-16 -15 -28 0 -23 -17 -46 -34 -46 -5 0 -2 8 7 18 22 24 22 103 0 145 -9 18
-16 41 -15 52 2 19 1 20 -6 1 -8 -19 -9 -18 -15 5 -10 36 -8 69 3 69 6 0 10
19 10 43 0 92 64 157 154 157 28 0 57 -4 65 -9 9 -6 -8 -7 -47 -4 -34 3 -62 2
-62 -3 0 -5 25 -9 55 -10 48 0 58 -4 85 -33 21 -21 30 -39 27 -52 -3 -10 -1
-16 4 -13 10 6 3 -51 -8 -69 -3 -6 -1 -7 5 -3 6 3 13 -2 15 -11 3 -10 5 3 6
29 1 57 -12 94 -47 131 -14 15 -21 27 -16 27 16 0 51 -41 63 -73 6 -16 11 -46
11 -67 0 -21 5 -40 11 -42 8 -3 10 -17 5 -43 -6 -28 -10 -35 -17 -24 -7 11 -9
11 -10 -3 -2 -25 -3 -28 -22 -72 -23 -51 -21 -88 4 -120 23 -29 15 -35 -13 -9
-18 16 -18 16 -12 0 3 -9 10 -17 16 -17 5 0 6 -4 3 -10 -3 -5 0 -7 8 -4 8 3
18 1 22 -5 3 -6 11 -11 18 -11 6 0 2 7 -9 15 -10 8 -14 14 -9 14 14 0 103 -48
90 -48 -5 -1 -17 3 -25 8 -22 14 -34 1 -13 -14 17 -13 17 -14 1 -20 -10 -4
-37 -5 -60 -2 -24 2 -64 -2 -92 -11 -39 -12 -55 -13 -79 -4 -16 6 -35 8 -40 5
-6 -4 7 -12 29 -18 30 -9 50 -8 87 3 27 8 72 12 100 10 44 -3 56 0 75 19 27
27 21 27 101 8 72 -17 88 -25 73 -34 -6 -4 -4 -12 6 -21 14 -13 15 -12 9 3 -3
9 -2 17 4 17 23 0 52 -96 59 -195 3 -55 9 -105 13 -112 4 -6 12 -57 18 -114 5
-56 17 -116 26 -132 12 -23 13 -35 4 -48 -8 -13 -8 -20 1 -25 6 -4 8 -3 4 4
-3 6 -2 13 3 16 5 3 12 -2 16 -12 10 -25 33 -157 40 -232 6 -54 19 -129 40
-220 2 -8 4 -19 4 -24 1 -4 8 -6 16 -2 9 3 19 -3 26 -15 12 -23 5 -54 -11 -44
-6 4 -8 -22 -5 -70 3 -49 0 -83 -7 -95 -10 -15 -10 -22 0 -32 24 -24 34 5 23
73 -14 83 -14 82 9 59 22 -22 36 -25 44 -11 7 11 -45 127 -74 164 -24 30 -44
112 -55 222 -10 110 -34 221 -60 278 -16 34 -27 86 -34 149 -5 54 -13 103 -17
110 -5 7 -9 47 -10 89 -4 153 -47 236 -135 259 -89 23 -145 42 -186 66 -36 21
-42 29 -45 62 -4 45 9 89 33 113 24 24 35 87 20 110 -6 11 -11 35 -11 55 0 43
-31 101 -68 129 -28 20 -133 32 -162 17z m-593 -1687 c0 -8 -4 -12 -9 -9 -5 3
-6 10 -3 15 9 13 12 11 12 -6z m1379 -113 l2 -24 -24 23 c-24 22 -34 46 -14
34 6 -3 10 2 10 12 1 17 1 16 12 -1 6 -11 12 -31 14 -44z m-36 -117 c0 -8 -4
-15 -10 -15 -5 0 -7 7 -4 15 4 8 8 15 10 15 2 0 4 -7 4 -15z"/>
<path d="M5302 3710 c-8 -14 -5 -17 19 -17 19 0 25 3 17 9 -10 6 -10 8 0 8 6
0 12 4 12 9 0 16 -37 8 -48 -9z"/>
<path d="M5363 3710 c-1 -11 4 -20 10 -20 7 0 13 9 14 20 1 11 -4 20 -10 20
-7 0 -13 -9 -14 -20z"/>
<path d="M5410 3720 c0 -5 4 -10 9 -10 6 0 13 5 16 10 3 6 -1 10 -9 10 -9 0
-16 -4 -16 -10z"/>
<path d="M5451 3713 c-1 -14 5 -23 14 -23 9 0 15 9 14 23 0 21 -1 21 -8 2 l-8
-20 -5 20 c-5 18 -6 18 -7 -2z"/>
<path d="M5490 3710 c0 -11 2 -20 4 -20 2 0 6 9 9 20 3 11 1 20 -4 20 -5 0 -9
-9 -9 -20z"/>
<path d="M5531 3713 c-1 -14 5 -23 14 -23 9 0 15 9 14 23 0 21 -1 21 -8 2 l-8
-20 -5 20 c-5 18 -6 18 -7 -2z"/>
<path d="M5571 3708 c0 -22 1 -22 8 -3 l8 20 5 -20 c5 -18 6 -18 7 3 1 13 -5
22 -14 22 -9 0 -15 -9 -14 -22z"/>
<path d="M5610 3710 c0 -11 7 -20 15 -20 8 0 15 9 15 20 0 11 -7 20 -15 20 -8
0 -15 -9 -15 -20z"/>
<path d="M5670 3721 c8 -6 18 -7 22 -5 4 3 8 0 8 -6 0 -7 -7 -10 -15 -7 -8 4
-17 2 -21 -4 -3 -6 11 -9 40 -8 34 2 46 7 47 18 0 12 3 10 9 -4 8 -20 9 -20 9
1 1 19 -5 21 -56 23 -39 0 -53 -2 -43 -8z"/>
<path d="M5780 3710 c0 -11 7 -20 15 -20 8 0 15 9 15 20 0 11 -7 20 -15 20 -8
0 -15 -9 -15 -20z"/>
<path d="M2055 3700 c-3 -5 -10 -8 -15 -5 -4 3 -22 -6 -39 -21 -33 -27 -53
-82 -49 -134 4 -57 18 -42 18 20 0 43 4 62 14 66 9 3 12 12 9 21 -4 11 -2 14
6 9 6 -4 10 -3 9 4 -4 14 67 40 102 38 14 -1 31 -6 38 -11 8 -6 12 -6 12 2 0
6 -1 11 -2 12 -29 8 -98 8 -103 -1z"/>
<path d="M5420 3700 c-13 -8 -12 -10 3 -10 9 0 17 5 17 10 0 12 -1 12 -20 0z"/>
<path d="M3826 3671 c-19 -19 -24 -31 -16 -36 7 -4 13 1 17 13 5 22 29 36 44
27 5 -4 6 1 3 9 -9 22 -16 20 -48 -13z"/>
<path d="M177 3654 c-4 -4 -7 -24 -7 -45 0 -36 1 -37 43 -41 61 -7 68 -2 65
46 l-3 41 -45 3 c-25 2 -49 0 -53 -4z m85 -27 c13 -25 1 -37 -36 -37 -28 0
-34 4 -38 25 -4 17 0 25 11 27 31 7 53 1 63 -15z"/>
<path d="M359 3635 c-4 -3 -5 -15 -2 -26 4 -13 14 -19 32 -18 14 0 20 3 14 6
-20 7 -15 23 5 16 14 -5 15 -4 4 8 -11 12 -15 11 -27 -4 -13 -18 -14 -18 -17
3 -2 12 -6 19 -9 15z"/>
<path d="M420 3630 c0 -5 5 -10 10 -10 6 0 10 5 10 10 0 6 -4 10 -10 10 -5 0
-10 -4 -10 -10z"/>
<path d="M450 3610 c0 -11 7 -20 15 -20 8 0 15 9 15 20 0 11 -7 20 -15 20 -8
0 -15 -9 -15 -20z"/>
<path d="M5173 3615 c-18 -19 -16 -45 2 -45 9 0 15 9 16 23 l0 22 9 -22 c12
-28 40 -30 40 -3 0 25 -20 27 -21 3 0 -12 -4 -8 -11 10 -11 30 -17 33 -35 12z"/>
<path d="M5262 3607 c-18 -21 1 -35 45 -33 36 1 43 4 43 21 0 15 -3 17 -9 7
-6 -11 -10 -10 -15 4 -6 15 -9 15 -31 -6 -14 -13 -25 -19 -25 -13 0 6 5 13 12
15 8 3 9 6 1 11 -6 4 -15 1 -21 -6z"/>
<path d="M5463 3613 c-15 -5 -18 -53 -4 -53 5 0 16 7 24 15 12 11 16 12 20 2
3 -9 8 -9 20 2 11 9 17 10 17 2 0 -6 7 -11 15 -11 9 0 15 9 14 23 0 21 -1 21
-9 2 -8 -19 -9 -19 -9 -1 -1 11 -4 16 -8 13 -3 -4 -12 -2 -19 4 -8 7 -14 7
-19 -1 -4 -7 -11 -8 -18 -2 -7 5 -18 7 -24 5z"/>
<path d="M5587 3613 c-4 -3 -7 -16 -6 -27 0 -19 1 -19 10 3 10 24 8 36 -4 24z"/>
<path d="M425 3600 c3 -5 8 -10 11 -10 2 0 4 5 4 10 0 6 -5 10 -11 10 -5 0 -7
-4 -4 -10z"/>
<path d="M5360 3585 c0 -23 2 -24 20 -15 11 6 20 15 20 21 0 6 5 7 10 4 6 -4
8 -11 5 -16 -4 -5 -1 -9 4 -9 6 0 11 9 11 20 0 16 -7 20 -35 20 -31 0 -35 -3
-35 -25z m30 5 c0 -5 -2 -10 -4 -10 -3 0 -8 5 -11 10 -3 6 -1 10 4 10 6 0 11
-4 11 -10z"/>
<path d="M3780 3546 c0 -31 3 -55 8 -52 9 5 8 94 -2 103 -3 4 -6 -19 -6 -51z"/>
<path d="M177 3534 c-12 -12 -8 -82 6 -86 6 -3 30 -4 52 -4 l40 1 0 45 0 45
-45 3 c-26 1 -49 0 -53 -4z m91 -43 c-2 -27 -5 -29 -42 -27 -30 1 -40 5 -42
20 -4 30 4 36 47 36 37 0 39 -2 37 -29z"/>
<path d="M354 3498 c-4 -5 0 -17 9 -25 10 -10 17 -11 21 -4 4 6 2 11 -3 11 -6
0 -11 5 -11 12 0 6 10 2 23 -10 25 -23 37 -20 37 9 0 13 -8 17 -35 17 -19 0
-38 -4 -41 -10z"/>
<path d="M441 3493 c-1 -14 5 -23 14 -23 9 0 15 9 14 23 0 21 -1 21 -8 2 l-8
-20 -5 20 c-5 18 -6 18 -7 -2z"/>
<path d="M4077 3495 c-4 -8 -2 -17 3 -20 6 -4 10 3 10 14 0 25 -6 27 -13 6z"/>
<path d="M5194 3482 c-15 -19 -21 -21 -21 -9 0 9 5 13 10 10 6 -3 7 -1 3 6
-10 15 -26 4 -26 -18 0 -13 8 -18 30 -18 16 0 27 4 24 9 -3 4 -1 8 5 8 5 0 11
-6 14 -12 2 -7 6 2 9 20 2 17 1 32 -4 32 -4 0 -8 -6 -8 -12 0 -9 -3 -10 -8 -2
-4 7 -14 2 -28 -14z"/>
<path d="M5610 3480 c0 -16 4 -30 8 -30 5 0 7 14 4 30 -2 17 -6 30 -8 30 -2 0
-4 -13 -4 -30z"/>
<path d="M1931 3484 c0 -11 3 -14 6 -6 3 7 2 16 -1 19 -3 4 -6 -2 -5 -13z"/>
<path d="M3760 3481 c0 -12 5 -20 11 -18 6 1 19 -18 29 -43 11 -25 19 -38 19
-29 1 19 -27 78 -46 97 -11 11 -13 10 -13 -7z"/>
<path d="M5254 3486 c-6 -17 2 -36 17 -36 12 0 12 37 -1 45 -6 3 -13 -1 -16
-9z"/>
<path d="M5294 3485 c-8 -20 10 -42 20 -26 4 6 1 11 -6 11 -10 0 -10 2 1 9 9
6 10 11 2 15 -6 4 -14 0 -17 -9z"/>
<path d="M5331 3478 c-1 -19 4 -28 14 -28 9 0 15 9 14 23 0 21 -1 21 -8 2 -8
-19 -9 -18 -13 5 -5 25 -5 25 -7 -2z"/>
<path d="M5377 3493 c-10 -10 -8 -43 2 -43 6 0 13 5 16 10 4 6 11 8 16 5 5 -4
9 2 10 12 0 16 1 16 9 -2 7 -16 9 -17 9 -3 1 21 -15 32 -24 18 -5 -8 -11 -8
-19 -1 -7 6 -16 8 -19 4z m10 -25 c-3 -8 -6 -5 -6 6 -1 11 2 17 5 13 3 -3 4
-12 1 -19z"/>
<path d="M5451 3473 l1 -28 8 25 8 25 1 -25 c1 -20 3 -22 11 -10 6 10 10 11
10 3 0 -7 5 -13 11 -13 5 0 7 6 3 13 -5 8 -2 8 9 -2 9 -7 18 -11 18 -7 1 3 2
9 3 14 1 4 5 12 9 19 8 13 -29 13 -50 0 -6 -4 -14 -3 -18 3 -12 19 -25 10 -24
-17z"/>
<path d="M5572 3487 c-13 -15 1 -42 17 -33 13 9 15 33 2 40 -5 3 -13 0 -19 -7z"/>
<path d="M4033 3418 c-2 -16 1 -18 10 -9 7 7 8 14 1 21 -6 6 -10 2 -11 -12z"/>
<path d="M183 3414 c-7 -3 -13 -23 -13 -44 0 -41 11 -50 58 -50 43 0 54 13 50
56 -3 38 -4 39 -43 41 -22 1 -46 0 -52 -3z m82 -44 c0 -23 -4 -25 -40 -25 -36
0 -40 3 -43 28 -3 27 -2 28 40 25 38 -3 43 -6 43 -28z"/>
<path d="M521 3380 c-1 -20 4 -26 21 -27 13 -1 24 -7 26 -13 5 -13 32 -13 32
0 0 6 -6 10 -14 10 -7 0 -16 9 -19 20 -6 22 -27 28 -28 8 0 -7 -4 -4 -9 7 -8
18 -9 18 -9 -5z"/>
<path d="M771 3372 c0 -24 1 -25 9 -7 7 17 9 17 9 3 1 -20 45 -25 57 -7 11 18
-13 34 -31 19 -8 -7 -15 -8 -15 -2 0 5 -7 12 -15 16 -11 4 -15 -2 -14 -22z"/>
<path d="M355 3381 c-8 -15 3 -31 21 -31 9 0 14 7 12 17 -4 20 -24 28 -33 14z"/>
<path d="M397 3363 c-7 -35 -2 -40 18 -19 10 9 14 23 11 31 -9 24 -23 17 -29
-12z"/>
<path d="M440 3373 c0 -11 7 -20 15 -20 18 0 16 28 -2 35 -8 2 -13 -5 -13 -15z"/>
<path d="M481 3373 c-1 -14 5 -23 14 -23 9 0 15 9 14 23 0 21 -1 21 -8 2 l-8
-20 -5 20 c-5 18 -6 18 -7 -2z"/>
<path d="M607 3378 c-6 -21 4 -48 19 -48 9 0 14 11 14 30 0 30 -24 43 -33 18z"/>
<path d="M657 3383 c-12 -12 -7 -30 8 -30 8 0 15 9 15 19 0 18 -11 24 -23 11z"/>
<path d="M691 3373 c-1 -14 5 -23 14 -23 9 0 15 9 14 23 0 21 -1 21 -8 2 l-8
-20 -5 20 c-5 18 -6 18 -7 -2z"/>
<path d="M737 3383 c-13 -13 -7 -33 11 -32 10 0 12 3 5 6 -7 2 -13 9 -13 14 0
6 5 7 10 4 6 -3 10 -1 10 4 0 12 -13 14 -23 4z"/>
<path d="M4010 3363 c-7 -16 -15 -23 -17 -15 -5 14 -110 17 -132 3 -10 -7 -19
-4 -27 7 -11 15 -12 14 -11 -9 l2 -25 52 14 c45 13 57 13 96 0 l45 -15 6 30
c8 40 2 44 -14 10z"/>
<path d="M5162 3360 c0 -19 2 -27 5 -17 2 9 2 25 0 35 -3 9 -5 1 -5 -18z"/>
<path d="M5233 3383 c-7 -2 -13 -9 -13 -14 0 -6 5 -7 10 -4 6 3 10 1 10 -4 0
-16 -16 -13 -30 4 -18 22 -30 18 -29 -7 0 -22 1 -22 9 -3 6 14 9 15 9 5 1 -9
11 -17 26 -18 21 -1 25 3 25 23 0 14 -1 25 -2 24 -2 0 -9 -3 -15 -6z"/>
<path d="M5260 3366 c0 -23 3 -27 12 -18 7 7 17 12 23 12 5 0 4 -4 -3 -9 -10
-6 -10 -10 3 -21 12 -10 15 -10 15 2 0 10 10 13 32 12 18 -1 36 3 40 9 5 8 8
7 8 -3 0 -13 1 -13 10 0 16 24 12 28 -25 27 -21 -1 -35 -6 -35 -14 0 -7 -4
-13 -10 -13 -5 0 -10 6 -10 14 0 8 -9 13 -22 12 -13 -1 -26 3 -30 9 -4 5 -8
-3 -8 -19z"/>
<path d="M5507 3370 c-5 -21 -27 -28 -27 -9 0 5 5 7 10 4 6 -3 10 -2 10 3 0 5
-16 9 -35 8 -38 -1 -40 -3 -25 -26 8 -12 12 -13 19 -2 7 11 9 10 15 -3 3 -10
11 -13 18 -8 7 4 23 6 36 4 15 -2 22 3 23 16 0 14 2 13 10 -5 10 -26 29 -21
29 8 0 23 -45 23 -61 0 -9 -13 -10 -12 -5 2 3 10 1 20 -3 23 -5 2 -11 -4 -14
-15z"/>
<path d="M5659 3381 c8 -5 9 -11 3 -15 -6 -3 -13 -2 -17 4 -10 16 -22 12 -28
-10 -3 -11 -1 -20 3 -20 5 0 11 8 13 18 4 16 5 16 6 0 1 -22 27 -24 35 -2 7
19 0 34 -17 34 -8 0 -8 -3 2 -9z"/>
<path d="M5698 3369 c-10 -5 -18 -15 -18 -21 0 -7 4 -7 14 1 10 9 15 8 19 -1
4 -11 44 -15 100 -9 10 1 9 41 -2 41 -5 0 -12 -8 -14 -17 -4 -15 -5 -15 -6 2
-1 17 -3 18 -11 5 -6 -10 -10 -11 -10 -2 0 6 -5 12 -11 12 -5 0 -8 -4 -4 -9 3
-5 1 -12 -4 -15 -5 -3 -11 1 -15 9 -6 17 -14 18 -38 4z"/>
<path d="M3890 3323 c0 -5 24 -9 53 -10 37 -1 46 1 32 7 -25 11 -85 13 -85 3z"/>
<path d="M2164 3278 c-16 -18 -22 -27 -14 -20 18 15 34 16 24 0 -4 -6 -3 -8 4
-4 6 3 13 -2 15 -11 4 -14 5 -13 6 5 0 12 -4 22 -9 22 -7 0 -7 6 0 20 15 28 8
25 -26 -12z"/>
<path d="M4000 3300 c0 -6 -5 -8 -12 -4 -7 4 -8 3 -4 -5 4 -6 11 -9 16 -6 4 3
11 -1 13 -7 4 -8 6 -7 6 4 1 9 -3 20 -9 23 -5 3 -10 1 -10 -5z"/>
<path d="M177 3294 c-4 -4 -7 -25 -7 -46 l0 -38 56 0 55 0 -3 43 -3 42 -45 3
c-25 2 -49 0 -53 -4z m87 -36 c-1 -10 -2 -22 -3 -28 0 -5 -16 -10 -35 -10 -26
0 -36 5 -41 20 -10 30 3 41 43 38 28 -2 37 -7 36 -20z"/>
<path d="M521 3256 c-1 -16 2 -27 5 -23 3 3 18 1 32 -4 38 -15 82 -2 83 24 1
20 2 20 8 -3 7 -24 7 -24 13 -3 4 14 1 24 -8 27 -22 8 -44 -4 -44 -25 0 -26
-36 -25 -43 1 -6 22 -27 28 -28 8 0 -7 -4 -4 -9 7 -7 17 -9 16 -9 -9z"/>
<path d="M721 3252 c0 -24 1 -25 9 -7 8 19 9 19 9 1 1 -23 8 -19 13 8 2 12 -3
20 -14 21 -14 3 -18 -3 -17 -23z"/>
<path d="M5266 3260 c-19 -20 -15 -40 10 -40 9 0 14 11 14 30 0 35 1 34 -24
10z"/>
<path d="M5381 3255 c-1 -30 0 -31 49 -32 37 -2 50 2 50 12 0 7 6 16 13 18 6
3 2 6 -10 6 -14 1 -23 -5 -23 -14 0 -8 -4 -15 -10 -15 -5 0 -10 6 -10 14 0 7
-10 13 -22 12 -13 -1 -26 6 -30 14 -4 9 -7 4 -7 -15z"/>
<path d="M357 3263 c-13 -12 -7 -24 18 -33 32 -12 55 -3 55 21 0 27 -30 24
-31 -3 l0 -23 -9 23 c-9 22 -21 28 -33 15z"/>
<path d="M450 3260 c10 -6 11 -10 3 -10 -7 0 -13 -4 -13 -10 0 -5 7 -10 15
-10 8 0 15 9 15 20 0 12 -7 20 -17 20 -15 0 -16 -2 -3 -10z"/>
<path d="M481 3253 c-1 -14 5 -23 14 -23 9 0 15 9 14 23 0 21 -1 21 -8 2 l-8
-20 -5 20 c-5 18 -6 18 -7 -2z"/>
<path d="M680 3250 c0 -11 7 -20 15 -20 8 0 15 9 15 20 0 11 -7 20 -15 20 -8
0 -15 -9 -15 -20z"/>
<path d="M767 3264 c-14 -14 -7 -35 11 -32 9 2 17 10 17 17 0 16 -18 25 -28
15z"/>
<path d="M5173 3263 c-18 -6 -16 -43 1 -43 7 0 16 11 18 25 5 25 3 27 -19 18z"/>
<path d="M5204 3249 c-3 -6 -1 -16 5 -22 9 -9 14 -8 21 3 9 15 4 30 -10 30 -5
0 -12 -5 -16 -11z"/>
<path d="M5300 3241 c0 -15 7 -19 35 -19 29 0 35 3 34 22 0 20 -1 20 -9 1 l-9
-20 0 20 c-1 17 -3 17 -11 5 -6 -10 -10 -11 -10 -2 0 6 -7 12 -15 12 -8 0 -15
-9 -15 -19z"/>
<path d="M2210 3236 c0 -2 8 -10 18 -17 15 -13 16 -12 3 4 -13 16 -21 21 -21
13z"/>
<path d="M174 3166 c-3 -8 -4 -27 -2 -43 3 -27 6 -28 53 -28 l50 0 0 40 0 40
-48 3 c-34 2 -49 -1 -53 -12z m84 -34 c-2 -21 -9 -25 -34 -26 -21 -1 -31 4
-31 14 -2 30 6 39 37 38 27 -1 31 -4 28 -26z"/>
<path d="M680 3146 c0 -30 -24 -35 -39 -8 -10 16 -10 15 -11 -3 l-1 -20 -9 20
c-8 19 -9 19 -9 -1 -1 -19 5 -22 39 -22 28 -1 40 3 40 14 0 8 5 14 10 14 6 0
10 -6 10 -13 0 -7 12 -13 28 -14 15 -1 21 1 15 4 -7 2 -13 9 -13 14 0 6 5 7
12 3 7 -4 8 -3 4 5 -4 6 -16 9 -26 6 -10 -3 -25 1 -34 10 -15 15 -16 14 -16
-9z"/>
<path d="M2350 3155 c-8 -10 -4 -23 15 -50 28 -42 55 -123 55 -166 0 -24 4
-27 48 -32 26 -3 57 -9 70 -12 17 -6 22 -3 22 11 0 14 -3 15 -8 6 -7 -10 -15
-10 -36 -2 -15 5 -40 10 -56 10 -25 0 -29 4 -28 28 0 15 -9 54 -22 87 -12 33
-22 68 -23 77 -1 9 -5 16 -10 15 -5 -1 -12 4 -15 12 -4 11 4 13 39 7 51 -8 49
-2 -3 12 -28 8 -40 7 -48 -3z"/>
<path d="M3656 3162 c-3 -5 1 -9 9 -9 8 0 12 4 9 9 -3 4 -7 8 -9 8 -2 0 -6 -4
-9 -8z"/>
<path d="M4162 3147 c-18 -20 -19 -25 -7 -47 13 -25 13 -25 12 9 -2 29 2 36
23 41 20 5 22 7 9 12 -11 4 -25 -2 -37 -15z"/>
<path d="M350 3135 c0 -22 4 -25 29 -23 19 1 31 9 34 20 3 10 1 18 -4 18 -5 0
-9 -5 -9 -11 0 -6 -7 -3 -16 5 -22 23 -34 20 -34 -9z"/>
<path d="M1798 3153 c17 -2 32 -6 32 -8 0 -2 -11 -20 -24 -40 -14 -20 -30 -62
-36 -93 -17 -86 -19 -90 -43 -95 -15 -3 -12 -5 11 -6 18 0 31 3 28 7 -10 17
27 143 54 184 16 23 26 46 24 50 -3 4 -22 7 -42 6 l-37 -1 33 -4z"/>
<path d="M3795 3150 l-50 -7 47 -1 c26 -1 50 3 53 8 3 6 5 9 3 8 -2 0 -25 -4
-53 -8z"/>
<path d="M437 3133 c4 -11 3 -14 -5 -9 -7 4 -12 2 -12 -3 0 -6 7 -11 15 -11 8
0 15 9 15 20 0 11 -4 20 -10 20 -5 0 -6 -7 -3 -17z"/>
<path d="M460 3140 c0 -5 7 -7 15 -4 8 4 15 8 15 10 0 2 -7 4 -15 4 -8 0 -15
-4 -15 -10z"/>
<path d="M525 3140 c-3 -5 -3 -14 0 -20 3 -5 -3 -10 -14 -10 -10 0 -21 6 -24
13 -3 9 -8 9 -16 1 -9 -8 -2 -14 30 -22 50 -13 59 -9 59 24 0 24 -23 34 -35
14z"/>
<path d="M580 3143 c5 -2 10 -9 10 -14 0 -6 -4 -7 -10 -4 -5 3 -10 1 -10 -4 0
-6 7 -11 16 -11 18 0 15 32 -4 36 -7 1 -8 0 -2 -3z"/>
<path d="M650 3139 c0 -5 5 -7 10 -4 6 3 10 8 10 11 0 2 -4 4 -10 4 -5 0 -10
-5 -10 -11z"/>
<path d="M2453 3135 c0 -7 7 -11 15 -7 10 3 13 1 8 -6 -4 -8 -2 -10 8 -6 17 7
41 -31 30 -48 -4 -6 -3 -8 3 -5 6 4 14 -5 18 -21 4 -15 9 -22 12 -15 7 20 -36
92 -65 107 -23 12 -29 12 -29 1z"/>
<path d="M1852 3117 c-27 -28 -50 -84 -62 -147 -11 -56 6 -121 40 -152 31 -29
34 -21 6 13 -14 17 -27 38 -28 47 0 9 -2 31 -4 47 -4 34 26 135 39 135 4 0 6
4 3 9 -4 5 -3 17 1 27 6 16 7 16 14 -2 7 -18 8 -18 8 1 1 18 7 20 72 18 38 -1
84 -9 100 -17 31 -15 79 -14 135 4 17 6 57 12 88 13 49 3 59 0 69 -17 6 -12
10 -24 9 -28 -1 -5 3 -8 9 -8 6 0 8 -7 5 -16 -3 -8 -2 -12 4 -9 6 3 10 3 11
-2 16 -141 11 -201 -14 -187 -7 4 -9 4 -5 -1 4 -4 3 -14 -3 -22 -9 -10 -8 -13
0 -13 24 0 53 89 48 145 -5 54 -36 137 -62 165 -16 18 -71 15 -196 -11 -42 -8
-66 -8 -90 0 -19 6 -63 14 -99 17 -36 3 -68 8 -71 10 -3 2 -16 -7 -27 -19z"/>
<path d="M3524 3124 c-18 -14 -18 -15 4 -4 12 6 22 13 22 15 0 8 -5 6 -26 -11z"/>
<path d="M3686 3114 c-9 -24 -2 -26 12 -4 7 11 8 20 3 20 -5 0 -12 -7 -15 -16z"/>
<path d="M3700 3064 c-16 -38 -20 -58 -13 -65 8 -8 13 -7 18 2 5 8 4 10 -3 5
-15 -9 -15 -9 4 47 9 26 20 44 25 41 5 -3 9 -1 9 5 0 5 10 12 23 14 16 3 14 5
-9 6 -29 1 -33 -3 -54 -55z"/>
<path d="M3828 3113 c17 -2 32 -9 32 -14 0 -5 6 -9 13 -8 36 4 40 -1 35 -51
-3 -27 -1 -50 3 -50 5 0 9 24 9 53 0 54 0 54 -39 65 -21 7 -49 11 -62 10 -17
-1 -14 -2 9 -5z"/>
<path d="M3972 3112 c-7 -5 19 -7 58 -5 69 4 107 -7 94 -28 -3 -5 -1 -9 5 -9
5 0 13 -10 17 -22 13 -44 54 -127 65 -134 7 -4 10 -3 7 2 -57 118 -88 186 -88
194 0 12 -139 13 -158 2z"/>
<path d="M4345 3080 c3 -5 8 -10 11 -10 2 0 4 5 4 10 0 6 -5 10 -11 10 -5 0
-7 -4 -4 -10z"/>
<path d="M3666 3065 c-9 -26 -7 -32 5 -12 6 10 9 21 6 23 -2 3 -7 -2 -11 -11z"/>
<path d="M4180 3050 c6 -11 13 -20 16 -20 2 0 0 9 -6 20 -6 11 -13 20 -16 20
-2 0 0 -9 6 -20z"/>
<path d="M174 3046 c-3 -8 -4 -27 -2 -43 3 -27 6 -28 53 -28 l50 0 0 40 0 40
-48 3 c-34 2 -49 -1 -53 -12z m90 -21 c11 -29 -4 -45 -37 -38 -40 7 -49 15
-41 36 8 22 69 23 78 2z"/>
<path d="M348 3025 c3 -26 9 -35 23 -35 26 0 24 28 -3 51 -11 11 -22 19 -23
19 0 0 1 -16 3 -35z"/>
<path d="M641 3020 c0 -29 2 -31 9 -15 7 16 9 16 9 4 1 -9 8 -20 17 -23 14 -5
15 -4 5 8 -6 8 -10 18 -9 22 2 5 -1 10 -6 11 -5 1 -13 7 -17 15 -6 8 -9 1 -8
-22z"/>
<path d="M543 3033 c-7 -2 -13 -13 -13 -24 0 -12 -7 -19 -20 -19 -11 0 -20 4
-20 10 0 5 -7 7 -15 4 -8 -4 -17 1 -21 10 -3 9 -10 16 -15 16 -4 0 -5 -7 -2
-17 4 -11 3 -14 -5 -9 -7 4 -12 3 -12 -2 0 -11 90 -23 119 -15 13 3 21 14 22
27 1 19 2 18 8 -4 7 -24 7 -24 13 -3 4 14 1 24 -9 27 -8 3 -15 6 -16 5 -1 0
-8 -3 -14 -6z"/>
<path d="M400 3010 c0 -11 2 -20 4 -20 2 0 6 9 9 20 3 11 1 20 -4 20 -5 0 -9
-9 -9 -20z"/>
<path d="M460 3020 c0 -5 4 -10 9 -10 6 0 13 5 16 10 3 6 -1 10 -9 10 -9 0
-16 -4 -16 -10z"/>
<path d="M597 3016 c-7 -16 1 -26 20 -26 7 0 13 9 13 20 0 23 -25 27 -33 6z"/>
<path d="M4190 3017 c0 -10 44 -87 47 -83 5 5 -26 74 -37 81 -5 3 -10 4 -10 2z"/>
<path d="M2540 2995 c0 -8 5 -15 10 -15 6 0 10 7 10 15 0 8 -4 15 -10 15 -5 0
-10 -7 -10 -15z"/>
<path d="M3647 2946 c-14 -26 -21 -48 -16 -52 5 -3 8 0 7 8 -2 7 3 12 10 10 8
-1 11 2 7 8 -4 6 1 22 10 36 9 14 15 28 12 30 -3 3 -16 -15 -30 -40z"/>
<path d="M3621 2962 c-17 -31 -13 -40 5 -14 9 13 14 26 11 29 -3 2 -10 -4 -16
-15z"/>
<path d="M3910 2925 c0 -54 -1 -55 -40 -75 -22 -11 -40 -18 -40 -14 0 4 -7 1
-15 -6 -8 -7 -22 -9 -31 -6 -12 5 -15 2 -10 -10 5 -12 2 -15 -9 -10 -9 3 -13
2 -10 -4 3 -6 1 -10 -6 -10 -7 0 -10 -2 -7 -6 3 -3 44 14 92 38 l86 42 0 58
c0 32 -2 58 -5 58 -3 0 -5 -25 -5 -55z"/>
<path d="M2547 2950 c3 -11 7 -20 9 -20 2 0 4 9 4 20 0 11 -4 20 -9 20 -5 0
-7 -9 -4 -20z"/>
<path d="M3462 2950 c0 -14 2 -19 5 -12 2 6 2 18 0 25 -3 6 -5 1 -5 -13z"/>
<path d="M1622 2938 c2 -16 6 -24 11 -19 5 5 5 17 -2 28 -9 16 -10 15 -9 -9z"/>
<path d="M4377 2935 c-4 -8 -3 -16 1 -19 4 -3 9 4 9 15 2 23 -3 25 -10 4z"/>
<path d="M174 2926 c-3 -8 -4 -27 -2 -43 3 -27 6 -28 53 -28 l50 0 3 43 3 42
-51 0 c-34 0 -52 -5 -56 -14z m85 -21 c11 -12 -11 -31 -38 -33 -24 -2 -31 2
-31 16 0 10 3 22 7 26 7 6 53 0 62 -9z"/>
<path d="M492 2914 c-7 -8 -17 -12 -23 -9 -5 4 -9 -2 -10 -12 0 -15 -2 -15 -7
-2 -10 21 -97 21 -97 -1 0 -18 53 -23 73 -8 8 7 12 7 12 0 0 -5 16 -10 35 -10
32 0 35 3 35 29 0 33 0 33 -18 13z m-102 -18 c0 -3 -4 -8 -10 -11 -5 -3 -10
-1 -10 4 0 6 5 11 10 11 6 0 10 -2 10 -4z m30 -6 c0 -5 -2 -10 -4 -10 -3 0 -8
5 -11 10 -3 6 -1 10 4 10 6 0 11 -4 11 -10z m80 0 c0 -5 -2 -10 -4 -10 -3 0
-8 5 -11 10 -3 6 -1 10 4 10 6 0 11 -4 11 -10z"/>
<path d="M751 2898 c0 -27 2 -29 8 -13 l8 20 5 -20 c5 -17 6 -18 7 -2 0 10 -6
25 -14 33 -13 14 -15 12 -14 -18z"/>
<path d="M4244 2918 c-11 -17 -23 -78 -14 -73 4 2 10 -13 14 -36 4 -25 10 -37
17 -33 7 4 9 -1 5 -14 -4 -11 0 -37 9 -57 16 -40 21 -93 6 -65 -4 8 -17 45
-27 83 -10 37 -21 67 -25 67 -9 0 -49 -185 -49 -229 0 -23 -4 -41 -10 -41 -5
0 -10 10 -10 23 0 12 -5 29 -10 37 -7 11 -8 6 -4 -17 7 -35 -7 -47 -66 -54
-58 -7 -261 -4 -321 4 -50 7 -56 11 -52 28 3 10 1 19 -5 19 -5 0 -9 -11 -9
-24 0 -21 6 -26 41 -32 80 -14 212 -19 286 -11 41 4 93 9 115 10 l40 2 13 -75
c7 -41 22 -122 33 -180 49 -250 59 -419 38 -652 -11 -124 -6 -205 22 -414 11
-79 10 -115 -5 -260 -10 -93 -20 -187 -23 -209 -3 -22 -3 -38 0 -35 9 8 38
248 44 365 4 82 1 132 -11 195 -20 101 -23 236 -12 495 9 205 5 265 -39 500
-43 230 -48 273 -42 342 7 73 28 173 37 173 10 0 70 -207 70 -240 0 -46 32
-152 85 -280 l47 -115 4 -153 c2 -85 6 -158 10 -163 9 -14 24 -10 24 7 0 8 -4
12 -10 9 -10 -6 -13 45 -15 220 0 69 -5 93 -38 173 -21 52 -36 96 -33 99 3 3
8 -3 12 -13 3 -10 11 -30 17 -44 6 -14 14 -34 18 -45 7 -19 7 -19 8 2 1 12
-10 43 -24 70 -24 43 -27 82 -7 69 5 -3 26 0 48 6 21 6 42 11 47 10 4 -1 7 5
7 14 0 15 -2 15 -24 1 -13 -9 -44 -17 -69 -19 -42 -3 -46 -5 -40 -25 3 -13 3
-23 -1 -23 -10 0 -47 133 -58 210 -12 85 -13 102 -5 148 3 19 2 30 -4 27 -8
-6 -13 8 -10 28 0 4 -4 7 -10 7 -7 0 -9 10 -5 24 3 14 1 28 -4 31 -6 4 -8 11
-4 16 3 5 0 16 -6 24 -7 8 -10 22 -6 31 6 15 44 15 114 0 12 -3 22 -1 22 4 0
12 -66 30 -112 30 -28 0 -36 3 -32 14 3 8 12 12 20 9 8 -3 14 -3 14 0 0 11
-30 15 -36 5z m16 -42 c0 -3 -4 -8 -10 -11 -5 -3 -10 -1 -10 4 0 6 5 11 10 11
6 0 10 -2 10 -4z"/>
<path d="M3600 2901 c9 -18 7 -19 -22 -15 -18 3 -51 1 -73 -3 -36 -8 -41 -13
-53 -53 -7 -25 -15 -72 -18 -105 -3 -33 -9 -76 -14 -97 -7 -35 -6 -36 24 -42
17 -3 44 -13 60 -21 24 -13 27 -13 23 -1 -3 8 -1 17 6 19 7 2 9 8 5 12 -4 4
-14 2 -22 -4 -12 -10 -21 -10 -42 1 -25 12 -28 18 -30 76 -2 47 0 61 9 55 9
-5 9 -3 0 8 -6 8 -9 27 -6 44 5 26 7 27 14 10 5 -14 7 -10 5 15 -5 58 -4 59
92 75 21 4 31 2 27 -5 -4 -6 1 -7 11 -3 14 5 16 2 10 -20 -15 -63 -15 -79 0
-39 17 44 12 112 -7 112 -6 0 -6 -7 1 -19z"/>
<path d="M520 2891 c0 -11 9 -21 23 -25 33 -9 77 -7 77 3 0 5 9 7 20 4 15 -4
20 0 20 16 0 13 -6 21 -17 21 -15 0 -16 -2 -3 -10 8 -5 12 -12 8 -15 -3 -3
-13 1 -21 10 -21 20 -37 19 -37 -2 0 -16 2 -16 11 -3 9 13 10 13 6 0 -4 -16
-48 -22 -69 -9 -10 7 -10 9 0 9 6 0 12 5 12 10 0 6 -7 10 -15 10 -8 0 -15 -8
-15 -19z"/>
<path d="M671 2893 c-1 -14 5 -23 14 -23 9 0 15 9 14 23 0 21 -1 21 -8 2 l-8
-20 -5 20 c-5 18 -6 18 -7 -2z"/>
<path d="M712 2893 c2 -9 10 -18 18 -20 13 -4 13 -3 0 6 -13 10 -13 12 0 21
13 8 12 10 -3 10 -12 0 -17 -6 -15 -17z"/>
<path d="M790 2890 c0 -13 6 -20 18 -19 10 0 12 3 5 6 -7 2 -13 9 -13 14 0 4
7 5 17 2 11 -4 14 -3 9 5 -12 19 -36 14 -36 -8z"/>
<path d="M1663 2903 c9 -2 23 -2 30 0 6 3 -1 5 -18 5 -16 0 -22 -2 -12 -5z"/>
<path d="M3470 2900 c-8 -5 -10 -10 -5 -10 6 0 17 5 25 10 8 5 11 10 5 10 -5
0 -17 -5 -25 -10z"/>
<path d="M4338 2903 c7 -3 16 -2 19 1 4 3 -2 6 -13 5 -11 0 -14 -3 -6 -6z"/>
<path d="M1663 2879 c-27 -8 -34 -17 -46 -62 -9 -28 -17 -83 -20 -122 -2 -38
-8 -77 -11 -86 -6 -13 1 -18 31 -25 21 -4 46 -7 56 -6 10 1 16 -2 12 -7 -3 -5
0 -13 6 -17 9 -5 10 -1 7 14 -4 12 0 26 8 33 8 7 13 17 11 24 -3 6 1 19 9 30
8 10 14 26 13 34 0 9 -7 1 -15 -16 -14 -32 -32 -48 -20 -18 3 8 2 15 -3 15 -5
0 -11 -9 -14 -20 -3 -12 -1 -18 5 -14 6 4 8 -4 6 -17 -2 -19 -10 -25 -34 -27
-47 -5 -57 16 -55 105 2 57 7 80 18 88 9 7 13 17 9 24 -4 6 -5 20 -1 31 5 17
48 30 110 35 18 1 22 -27 12 -79 -8 -37 -12 -45 -18 -30 -4 13 -6 7 -6 -18 1
-21 4 -38 7 -38 11 0 42 125 38 151 -2 20 -9 24 -43 26 -22 1 -54 -3 -72 -8z"/>
<path d="M2409 2873 c-2 -29 3 -67 9 -78 3 -5 7 -16 8 -25 1 -8 11 -49 24 -90
12 -41 24 -85 27 -97 6 -27 7 -27 72 -7 48 16 50 18 46 48 -2 17 -9 69 -16
116 -6 47 -13 87 -16 90 -6 5 2 -142 11 -196 4 -25 0 -33 -17 -41 -30 -13 -72
-1 -71 20 1 9 -2 14 -7 12 -4 -3 -7 3 -7 12 0 10 -9 52 -21 93 -27 91 -31 120
-18 120 6 0 6 5 -1 13 -12 14 21 15 76 2 26 -6 32 -13 33 -34 l1 -26 10 28
c12 34 10 36 -39 48 -64 15 -103 11 -104 -8z"/>
<path d="M3639 2875 c-5 -19 -3 -62 3 -59 4 3 6 18 5 34 -2 28 -5 37 -8 25z"/>
<path d="M3930 2866 c0 -2 7 -7 16 -10 8 -3 12 -2 9 4 -6 10 -25 14 -25 6z"/>
<path d="M3970 2846 c0 -2 9 -6 20 -9 11 -3 18 -1 14 4 -5 9 -34 13 -34 5z"/>
<path d="M3820 2796 c-47 -24 -103 -49 -126 -56 -35 -10 -40 -16 -36 -35 4
-26 29 -42 29 -19 0 7 -4 11 -9 8 -4 -3 -8 1 -8 9 0 17 27 30 42 20 7 -4 8 -1
3 7 -6 10 -3 12 13 8 12 -4 25 -1 30 5 10 17 102 58 113 52 5 -4 12 1 15 9 9
23 22 20 27 -6 4 -20 4 -19 6 5 1 25 3 26 24 15 12 -7 30 -19 40 -27 9 -8 20
-11 24 -8 3 4 21 -3 40 -14 18 -11 33 -17 33 -14 0 4 6 3 13 -2 6 -6 29 -13
49 -17 34 -6 63 -26 39 -26 -6 0 -11 -15 -11 -32 1 -36 12 -24 24 24 6 25 3
28 -41 41 -27 8 -86 33 -133 56 -47 22 -92 41 -100 40 -8 0 -53 -20 -100 -43z"/>
<path d="M4197 2820 c3 -11 9 -17 14 -15 10 7 1 35 -11 35 -5 0 -6 -9 -3 -20z"/>
<path d="M4390 2835 c-1 -5 -1 -14 0 -20 1 -5 8 -52 14 -102 9 -65 9 -93 2
-93 -6 0 -5 -4 3 -9 16 -10 -4 -19 -58 -26 -30 -3 -38 6 -31 40 1 6 -3 6 -9
-1 -8 -7 -8 -19 0 -41 10 -30 11 -31 37 -17 15 8 41 17 58 20 31 6 31 7 23 42
-5 21 -9 55 -9 77 0 39 -26 150 -30 130z"/>
<path d="M4021 2826 c13 -12 82 -46 86 -42 3 2 -13 14 -36 25 -36 19 -61 27
-50 17z"/>
<path d="M174 2806 c-3 -8 -4 -27 -2 -43 3 -27 6 -28 53 -28 l50 0 3 43 3 42
-51 0 c-34 0 -52 -5 -56 -14z m91 -17 c5 -6 5 -9 -3 -9 -6 0 -9 -7 -6 -15 6
-16 -20 -21 -50 -9 -16 6 -22 35 -9 48 9 8 54 -1 68 -15z"/>
<path d="M1800 2812 c0 -6 4 -13 10 -17 5 -3 6 -13 3 -23 -6 -14 -4 -15 9 -4
8 7 24 10 34 6 17 -5 17 -4 -1 7 -11 6 -28 19 -37 27 -11 9 -18 10 -18 4z"/>
<path d="M2371 2801 c-7 -13 -18 -18 -29 -15 -16 5 -16 5 1 -6 9 -6 17 -19 17
-28 1 -15 2 -15 11 1 6 10 8 21 5 24 -3 4 -1 12 6 20 6 7 8 16 5 19 -3 3 -10
-4 -16 -15z"/>
<path d="M498 2801 c-1 -5 -10 -11 -18 -13 -8 -2 -18 -10 -22 -18 -5 -12 -7
-12 -7 2 -1 14 -11 17 -52 16 -41 0 -50 -3 -47 -16 4 -19 55 -25 76 -9 8 6 12
6 12 -2 0 -16 27 -13 34 4 6 17 26 20 26 4 0 -5 -4 -7 -10 -4 -5 3 -10 1 -10
-4 0 -6 7 -11 15 -11 10 0 15 10 15 30 0 30 -5 39 -12 21z m-108 -25 c0 -3 -4
-8 -10 -11 -5 -3 -10 -1 -10 4 0 6 5 11 10 11 6 0 10 -2 10 -4z m30 -6 c0 -5
-2 -10 -4 -10 -3 0 -8 5 -11 10 -3 6 -1 10 4 10 6 0 11 -4 11 -10z"/>
<path d="M603 2794 c-7 -7 -13 -19 -13 -26 0 -8 -9 -14 -20 -14 -13 0 -20 7
-20 18 0 10 -7 18 -15 18 -8 0 -15 -9 -15 -19 0 -40 99 -37 101 3 1 19 2 19 9
-4 7 -21 8 -22 9 -5 2 19 2 19 16 1 15 -20 35 -14 35 11 0 10 -6 14 -19 10
-11 -3 -28 1 -38 8 -15 10 -20 10 -30 -1z"/>
<path d="M720 2775 c0 -14 4 -25 9 -25 4 0 6 11 3 25 -2 14 -6 25 -8 25 -2 0
-4 -11 -4 -25z"/>
<path d="M1777 2775 c-4 -16 -21 -70 -36 -120 -16 -49 -32 -115 -36 -146 -3
-31 -13 -78 -21 -105 -24 -81 -77 -205 -84 -194 -3 5 -14 -4 -23 -20 -11 -18
-14 -31 -7 -35 5 -3 10 3 10 14 0 11 5 23 10 26 13 8 13 1 -2 -46 -10 -35 -12
-37 -24 -21 -8 10 -13 12 -14 5 0 -9 -7 -10 -24 -3 -13 5 -27 6 -30 3 -3 -4
-4 9 -1 28 4 29 3 30 -4 9 -14 -40 -12 -50 9 -50 10 0 30 -5 43 -11 31 -14 39
-69 27 -184 -4 -44 -8 -82 -8 -85 0 -3 0 -12 -1 -20 -1 -13 -2 -13 -11 0 -8
13 -10 12 -10 -2 0 -23 27 -23 34 0 3 10 8 78 10 152 4 148 12 186 57 287 37
82 79 224 79 266 0 16 13 71 29 121 16 50 31 100 33 111 8 38 42 -130 42 -205
0 -88 -18 -244 -32 -280 -40 -104 -58 -455 -34 -675 12 -112 9 -186 -19 -382
-11 -82 -11 -116 6 -285 10 -106 19 -200 18 -208 -5 -119 -32 -209 -79 -261
-7 -8 -17 -29 -20 -46 -5 -25 -1 -33 23 -51 33 -23 105 -45 125 -37 21 8 50
71 60 130 21 120 28 193 23 232 -7 49 18 248 40 320 9 30 15 91 15 164 0 70 5
132 13 155 7 22 21 84 31 139 10 55 24 132 33 170 40 184 53 253 52 285 -1 26
-4 20 -10 -22 -4 -31 -22 -115 -39 -186 -16 -71 -30 -142 -30 -156 0 -26 -16
-102 -46 -217 -8 -32 -14 -103 -14 -171 0 -75 -5 -130 -14 -156 -22 -62 -49
-261 -43 -317 9 -82 -18 -264 -48 -322 -16 -31 -26 -38 -50 -33 -5 1 -23 4
-39 6 -30 4 -76 39 -76 59 0 6 7 20 15 31 14 18 14 17 5 -9 -7 -19 -7 -26 0
-22 6 3 10 -2 10 -12 0 -15 2 -16 10 -3 6 10 6 16 0 18 -6 2 -10 10 -10 18 0
9 5 12 13 8 6 -4 9 -4 5 1 -4 4 -2 15 5 24 11 14 10 15 -7 1 -11 -8 -17 -10
-15 -5 3 6 20 41 38 79 31 67 33 75 32 185 0 64 -5 143 -10 176 -18 102 -24
256 -12 320 25 138 32 268 21 390 -22 234 -14 445 27 637 11 56 19 75 29 71 8
-3 14 -9 14 -15 0 -5 -4 -7 -9 -3 -11 6 -17 -11 -26 -69 -3 -21 -8 -50 -11
-62 -6 -22 -3 -24 32 -24 40 0 116 -30 145 -56 9 -8 20 -14 25 -12 5 1 25 -14
45 -35 35 -35 69 -49 69 -27 0 5 -6 7 -13 4 -14 -5 -40 18 -71 60 -10 14 -25
34 -33 43 -13 16 -13 16 -4 -4 16 -32 13 -41 -7 -17 -9 11 -21 21 -27 22 -35
8 -73 27 -65 32 6 4 -10 5 -36 4 l-46 -3 6 51 c4 28 12 60 17 70 10 19 39 25
39 8 0 -5 8 -7 18 -3 14 5 15 3 5 -8 -16 -16 -17 -29 -2 -29 5 0 8 4 5 9 -10
16 18 19 52 5 18 -7 57 -16 85 -18 29 -3 43 -3 32 0 -11 2 -40 10 -65 16 -25
6 -76 25 -114 41 l-68 31 8 70 c15 135 8 254 -18 336 -23 70 -25 73 -31 45z"/>
<path d="M702 2770 c0 -14 2 -19 5 -12 2 6 2 18 0 25 -3 6 -5 1 -5 -13z"/>
<path d="M2377 2728 c-9 -35 -15 -48 -13 -31 2 29 1 31 -13 19 -17 -15 -15
-16 -128 29 -21 8 -47 15 -58 15 l-20 1 20 8 c11 5 -10 6 -50 3 -38 -3 -86
-11 -105 -19 -27 -10 -29 -12 -7 -8 109 21 192 9 302 -47 l49 -24 3 -124 c4
-165 6 -183 39 -335 28 -125 29 -141 29 -392 0 -144 1 -260 2 -259 1 1 7 66
13 146 12 164 2 332 -31 495 -22 105 -36 207 -46 314 -5 63 19 213 39 236 10
12 10 35 0 35 -5 0 -16 -28 -25 -62z"/>
<path d="M3598 2737 c-10 -29 -16 -40 -14 -25 2 15 -1 33 -5 40 -6 8 -9 2 -9
-18 0 -18 -7 -44 -14 -60 -8 -15 -12 -32 -8 -38 4 -6 8 0 10 14 4 30 22 52 22
27 0 -9 -9 -39 -20 -67 -11 -28 -20 -65 -20 -83 0 -48 -42 -188 -94 -312 -40
-93 -46 -119 -45 -170 5 -210 -7 -289 -30 -192 l-10 42 3 -43 c4 -47 20 -72
36 -56 5 5 11 81 13 169 l3 160 51 120 c53 125 83 222 83 271 0 32 61 233 71
234 4 0 14 -41 24 -91 22 -114 14 -215 -39 -471 -35 -170 -46 -335 -34 -495
15 -188 13 -306 -6 -411 -20 -115 -20 -271 0 -427 21 -166 12 -259 -32 -348
-19 -37 -38 -67 -43 -67 -5 0 -11 -7 -15 -15 -14 -39 21 -59 122 -71 48 -5 60
-3 72 11 18 21 37 186 43 360 3 84 12 152 31 228 19 80 26 135 26 207 0 73 6
122 24 189 14 50 28 117 31 149 4 31 18 100 31 152 31 116 54 242 54 292 0 40
15 60 23 31 3 -10 8 -49 12 -88 4 -38 22 -131 41 -205 18 -74 34 -150 34 -168
0 -19 14 -88 30 -154 23 -93 30 -142 30 -220 0 -65 7 -126 19 -176 25 -100 43
-251 35 -299 -3 -21 -1 -74 6 -118 6 -44 12 -99 14 -122 4 -65 19 -76 90 -68
73 8 126 29 126 49 0 8 -11 27 -24 43 -39 47 -70 115 -77 173 l-7 55 3 -55 c1
-30 6 -66 10 -79 6 -18 5 -22 -4 -16 -10 6 -11 3 -1 -15 6 -12 14 -19 17 -16
8 8 33 -29 38 -56 3 -12 -1 -28 -7 -35 -8 -11 -7 -12 6 -7 9 3 16 13 16 22 0
12 3 13 12 4 19 -19 -7 -38 -69 -51 -70 -14 -96 -14 -88 -1 4 6 11 8 16 5 15
-10 49 5 49 22 0 14 -2 14 -18 0 -24 -22 -32 -21 -33 1 0 13 -2 12 -9 -6 -11
-26 -30 -29 -31 -4 -1 22 -6 71 -15 144 -6 56 -6 57 20 64 14 3 37 4 50 2 23
-5 24 -2 23 33 -1 20 -5 35 -10 32 -5 -3 -6 5 -3 18 6 21 5 22 -4 6 -7 -12 -8
-22 -2 -30 19 -25 10 -47 -20 -47 -16 0 -38 -5 -50 -11 -19 -10 -20 -9 -13 63
7 76 -12 225 -41 322 -8 30 -14 93 -14 162 0 66 -5 127 -13 150 -7 22 -21 84
-31 139 -9 55 -31 159 -47 230 -50 220 -61 319 -32 308 7 -3 10 -10 6 -17 -12
-19 -14 -56 -3 -56 5 0 9 6 7 13 -1 7 6 11 18 9 18 -2 18 -1 -3 11 -31 18 -18
27 21 16 74 -22 164 17 199 84 17 35 19 52 14 109 -3 37 -11 78 -17 91 -26 57
-135 79 -201 40 -61 -36 -78 -74 -78 -179 0 -56 4 -94 10 -94 10 0 14 16 10
35 -1 6 -1 43 -1 84 1 56 6 80 21 101 24 33 77 60 119 60 34 0 81 -19 81 -32
0 -5 5 -6 12 -2 8 5 9 2 5 -9 -4 -11 -1 -17 8 -17 15 0 18 -16 20 -118 1 -36
-5 -49 -40 -89 -38 -42 -45 -46 -96 -51 -40 -3 -65 1 -88 12 -17 9 -36 14 -41
11 -5 -3 -11 -1 -15 5 -4 6 -10 8 -14 5 -5 -2 -6 39 -4 92 4 88 2 98 -21 133
-46 70 -150 94 -220 51 -28 -18 -36 -31 -45 -72 -13 -61 -14 -120 -2 -151 11
-29 50 -72 76 -86 33 -16 99 -24 125 -14 27 10 53 5 45 -8 -3 -5 -1 -11 5 -15
6 -4 9 6 8 26 -2 18 2 34 8 36 16 5 -10 -174 -45 -317 -16 -63 -37 -160 -47
-215 -9 -55 -24 -117 -31 -139 -7 -22 -13 -83 -13 -143 0 -71 -7 -132 -20
-189 -30 -125 -50 -283 -41 -324 4 -20 4 -44 0 -55 -8 -20 -8 -20 -9 0 -1 11
-4 14 -7 7 -2 -6 -10 -10 -16 -6 -7 3 -4 -1 6 -10 17 -13 18 -24 12 -111 -8
-98 -19 -126 -53 -124 -25 0 -99 17 -84 18 6 0 12 6 12 13 0 9 -3 9 -12 0 -16
-16 -43 -15 -57 2 -9 11 -6 20 14 44 76 91 96 211 70 437 -19 165 -16 292 9
465 15 100 16 133 5 251 -16 189 -8 414 21 566 13 68 25 121 28 118 2 -2 21 5
40 16 71 37 163 20 217 -42 l30 -34 30 34 c53 61 149 80 211 42 l32 -19 -5 61
c-8 88 -28 163 -44 159 -125 -30 -370 -29 -449 2 -13 5 -18 -7 -28 -65 -7 -39
-10 -74 -7 -79 3 -4 -1 -23 -9 -41 -14 -33 -14 -32 -9 31 3 36 11 91 19 122
11 46 12 72 4 125 -13 81 -39 185 -48 195 -4 4 -15 -16 -24 -45z m152 -269 c8
0 22 -2 30 -6 24 -9 280 -8 280 2 0 4 14 6 30 4 17 -3 33 -1 36 4 10 15 23 8
17 -9 -4 -10 -2 -14 4 -10 13 8 24 -32 28 -103 l3 -47 -42 15 c-58 21 -106 6
-198 -60 -14 -10 -21 -9 -37 6 -11 10 -19 22 -16 26 2 4 -1 7 -8 8 -7 0 -31 8
-54 16 -50 19 -129 14 -145 -9 -4 -5 -5 22 -1 60 3 44 11 73 19 78 8 4 14 13
14 20 0 7 -4 6 -10 -3 -8 -13 -10 -12 -10 4 0 14 5 17 23 11 12 -3 29 -7 37
-7z m85 -214 c13 -12 26 -20 29 -17 2 3 11 -8 20 -24 9 -19 16 -63 17 -119 l2
-89 -32 -22 c-26 -18 -45 -22 -90 -20 -70 3 -105 24 -127 75 -15 37 -26 122
-15 122 3 0 7 16 8 36 2 33 30 69 55 69 3 0 10 4 14 8 16 16 95 4 119 -19z"/>
<path d="M1976 2771 c-4 -5 3 -7 14 -4 23 6 26 13 6 13 -8 0 -17 -4 -20 -9z"/>
<path d="M3678 2770 c-15 -4 -29 -6 -32 -4 -4 2 -2 -1 3 -7 7 -9 20 -7 48 4
40 17 28 21 -19 7z"/>
<path d="M4138 2768 c14 -7 26 -8 32 -2 5 5 -4 10 -23 11 -30 1 -31 1 -9 -9z"/>
<path d="M4192 2764 c-7 -8 -8 -14 -3 -14 10 0 25 19 20 25 -2 1 -10 -3 -17
-11z"/>
<path d="M1905 2720 c-59 -35 -62 -36 -68 -12 -3 10 -5 6 -6 -11 0 -16 2 -27
7 -25 4 2 35 17 69 33 34 17 62 33 63 38 0 12 -13 7 -65 -23z"/>
<path d="M2411 2741 c-1 -8 10 -53 24 -100 13 -47 32 -124 40 -171 9 -47 28
-112 42 -145 69 -164 81 -213 87 -365 6 -134 15 -175 33 -156 4 4 1 11 -6 15
-10 6 -12 27 -9 75 2 36 0 60 -4 53 -5 -7 -8 21 -8 63 1 155 -7 209 -40 276
-32 65 -48 85 -30 39 5 -14 18 -43 29 -65 11 -23 22 -55 26 -73 9 -46 -74 146
-96 223 -11 36 -19 78 -19 95 0 30 -68 262 -69 236z"/>
<path d="M2078 2733 c12 -2 30 -2 40 0 9 3 -1 5 -23 4 -22 0 -30 -2 -17 -4z"/>
<path d="M2015 2720 c4 -7 -3 -9 -22 -5 -26 5 -26 5 -5 -5 18 -7 29 -6 45 5
l21 15 -22 0 c-14 0 -20 -4 -17 -10z"/>
<path d="M2155 2720 c3 -5 17 -10 31 -10 13 0 24 -4 24 -10 0 -5 7 -7 17 -3
14 6 14 7 -3 13 -44 16 -76 21 -69 10z"/>
<path d="M182 2698 c-18 -18 -15 -75 4 -82 31 -12 82 -6 88 10 8 22 8 62 -1
67 -23 13 -80 16 -91 5z m84 -41 c1 -27 -1 -28 -40 -25 -33 2 -41 7 -42 23 -1
32 5 36 44 33 32 -3 36 -6 38 -31z"/>
<path d="M1945 2700 c-3 -5 -1 -10 4 -10 6 0 11 5 11 10 0 6 -2 10 -4 10 -3 0
-8 -4 -11 -10z"/>
<path d="M560 2667 c0 -20 -5 -27 -20 -27 -13 0 -20 7 -20 19 0 16 -7 18 -42
16 -35 -2 -44 -6 -46 -24 -4 -25 10 -27 33 -4 13 13 19 13 25 3 6 -10 9 -10
13 1 4 10 6 10 6 -2 1 -21 29 -33 46 -19 6 5 15 7 18 3 4 -3 10 2 13 11 4 11
0 24 -10 34 -15 15 -16 14 -16 -11z m17 -19 c-3 -8 -6 -5 -6 6 -1 11 2 17 5
13 3 -3 4 -12 1 -19z"/>
<path d="M880 2670 c0 -13 -6 -20 -17 -19 -11 0 -13 3 -5 6 14 5 16 23 3 23
-5 0 -17 -7 -25 -16 -15 -14 -17 -14 -32 0 -22 22 -34 20 -34 -7 0 -22 4 -23
53 -21 69 2 67 2 68 22 0 14 2 14 9 -3 8 -19 9 -19 9 1 1 12 -6 24 -14 28 -10
4 -15 -1 -15 -14z"/>
<path d="M1882 2674 c-14 -10 -13 -11 11 -7 15 3 29 9 32 13 7 11 -25 8 -43
-6z"/>
<path d="M2266 2680 c5 -4 18 -10 29 -12 11 -2 19 -10 17 -17 -1 -7 2 -10 8
-6 6 4 8 -10 5 -41 -6 -56 0 -55 13 3 9 38 7 44 -12 56 -24 16 -73 30 -60 17z"/>
<path d="M357 2660 c-7 -27 13 -37 30 -15 10 15 10 20 0 27 -19 12 -24 10 -30
-12z"/>
<path d="M607 2673 c-4 -3 -7 -16 -6 -27 0 -19 1 -19 10 3 10 24 8 36 -4 24z"/>
<path d="M630 2665 c0 -26 4 -30 32 -30 14 0 30 -3 34 -7 11 -11 24 -10 24 2
0 6 -6 10 -14 10 -7 0 -16 9 -19 21 -3 12 -10 18 -17 14 -8 -5 -8 -11 1 -21
10 -12 9 -13 -5 -8 -9 3 -16 12 -16 20 0 8 -4 14 -10 14 -5 0 -10 -7 -10 -15z"/>
<path d="M726 2672 c-8 -14 5 -53 18 -49 15 5 14 49 -1 54 -6 2 -14 0 -17 -5z"/>
<path d="M924 2666 c-6 -17 2 -36 17 -36 12 0 12 37 -1 45 -6 3 -13 -1 -16 -9z"/>
<path d="M406 2655 c-3 -8 -1 -15 4 -15 6 0 10 7 10 15 0 8 -2 15 -4 15 -2 0
-6 -7 -10 -15z"/>
<path d="M1854 2637 c-9 -24 6 -44 18 -22 7 11 6 21 -1 28 -7 7 -12 6 -17 -6z"/>
<path d="M4162 2610 c0 -19 2 -27 5 -17 2 9 2 25 0 35 -3 9 -5 1 -5 -18z"/>
<path d="M3680 2601 c0 -11 5 -23 10 -26 6 -3 10 3 10 14 0 11 -4 23 -10 26
-5 3 -10 -3 -10 -14z"/>
<path d="M183 2583 c-7 -2 -13 -22 -13 -43 0 -38 0 -38 45 -42 54 -4 65 5 65
48 0 32 -24 54 -34 31 -3 -9 -5 -9 -5 1 -1 12 -34 15 -58 5z m71 -28 c29 -22
14 -42 -31 -41 -31 1 -38 5 -39 21 0 11 1 23 3 28 7 12 47 7 67 -8z"/>
<path d="M1575 2570 c-3 -4 -1 -19 4 -32 l10 -23 0 23 c1 24 11 28 28 11 6 -6
13 -7 16 -2 3 5 -7 14 -24 20 -16 6 -31 8 -34 3z"/>
<path d="M2600 2572 c0 -7 -4 -11 -9 -8 -11 7 -41 -3 -41 -13 0 -3 15 -6 33
-6 27 0 33 -4 35 -25 2 -14 9 -31 15 -38 6 -7 6 -12 1 -11 -5 1 -22 -4 -39
-11 -16 -7 -40 -12 -52 -12 -17 1 -41 -24 -31 -33 2 -2 33 7 71 18 49 16 67
26 67 39 0 10 -5 18 -11 18 -5 0 -7 4 -4 10 3 5 -3 26 -14 47 -11 21 -20 32
-21 25z"/>
<path d="M510 2547 c0 -23 17 -38 43 -36 7 0 1 5 -12 10 -14 6 -21 15 -17 24
3 8 1 17 -4 20 -6 4 -10 -5 -10 -18z"/>
<path d="M560 2551 c0 -10 7 -24 15 -31 12 -10 16 -9 21 4 6 16 -11 46 -27 46
-5 0 -9 -8 -9 -19z"/>
<path d="M753 2563 c-7 -2 -13 -13 -13 -24 0 -12 -7 -19 -20 -19 -14 0 -20 7
-20 21 0 12 -5 19 -12 17 -21 -7 -15 -41 7 -44 40 -7 75 7 76 29 1 20 2 20 8
-3 6 -23 8 -23 14 -6 10 26 -11 41 -40 29z"/>
<path d="M851 2543 c0 -24 2 -25 8 -9 7 19 8 18 14 -4 3 -13 8 -22 11 -19 9 9
-8 54 -21 57 -8 1 -13 -9 -12 -25z"/>
<path d="M3403 2558 c-19 -26 -36 -68 -30 -74 3 -3 11 4 17 17 7 12 24 33 38
46 23 21 24 23 5 23 -11 0 -25 -6 -30 -12z"/>
<path d="M4405 2560 c4 -6 12 -7 18 -3 7 4 5 -2 -3 -12 -14 -17 -14 -18 6 -7
12 6 25 8 30 4 5 -4 2 1 -5 11 -14 18 -57 25 -46 7z"/>
<path d="M368 2553 c10 -4 8 -9 -5 -19 -17 -13 -17 -13 3 -14 17 0 34 17 34
34 0 1 -10 2 -22 3 -13 0 -17 -1 -10 -4z"/>
<path d="M430 2543 c0 -11 7 -20 15 -20 18 0 16 28 -2 35 -8 2 -13 -5 -13 -15z"/>
<path d="M471 2538 c0 -21 1 -22 8 -3 8 18 9 18 14 2 4 -15 5 -15 3 -1 -2 27
-26 29 -25 2z"/>
<path d="M610 2540 c0 -11 2 -20 4 -20 2 0 6 9 9 20 3 11 1 20 -4 20 -5 0 -9
-9 -9 -20z"/>
<path d="M644 2551 c4 -5 1 -11 -6 -13 -6 -2 -8 -10 -4 -16 4 -7 12 -10 17 -7
13 8 11 45 -2 45 -5 0 -8 -4 -5 -9z"/>
<path d="M812 2538 c2 -13 8 -23 13 -23 6 0 11 10 13 23 2 15 -2 22 -13 22
-11 0 -15 -7 -13 -22z"/>
<path d="M1859 2558 c-8 -15 -2 -55 8 -55 8 0 9 6 4 16 -5 9 -6 22 -4 29 4 10
-4 18 -8 10z"/>
<path d="M3460 2548 c0 -6 3 -8 7 -5 3 4 19 -7 35 -23 17 -18 28 -24 28 -16 0
15 -45 56 -61 56 -5 0 -9 -5 -9 -12z"/>
<path d="M4354 2546 c-16 -13 -17 -17 -5 -28 8 -7 11 -8 8 -2 -9 15 19 38 34
28 8 -4 9 -3 5 4 -9 16 -18 15 -42 -2z"/>
<path d="M406 2541 c-4 -7 -5 -15 -2 -18 9 -9 19 4 14 18 -4 11 -6 11 -12 0z"/>
<path d="M1659 2532 c16 -29 28 -35 35 -16 8 20 8 19 -22 29 -21 6 -23 5 -13
-13z"/>
<path d="M2508 2543 c-20 -5 -24 -48 -7 -73 8 -12 9 -8 7 15 -3 34 9 58 23 50
5 -4 9 -1 9 4 0 11 -3 12 -32 4z"/>
<path d="M1547 2506 c-21 -47 -21 -56 -2 -56 9 0 41 -9 72 -20 31 -11 57 -19
58 -17 2 1 5 20 8 42 3 22 3 32 1 23 -6 -20 -56 -55 -52 -36 2 6 -6 14 -17 16
-11 2 -23 9 -26 14 -4 6 -15 6 -30 -2 l-23 -13 17 27 c10 15 17 35 14 44 -2
12 -9 5 -20 -22z"/>
<path d="M2312 2520 c0 -14 2 -19 5 -12 2 6 2 18 0 25 -3 6 -5 1 -5 -13z"/>
<path d="M4320 2501 c0 -6 5 -11 11 -11 6 0 8 -7 5 -16 -3 -9 -3 -21 1 -27 4
-7 9 -21 10 -32 7 -44 12 -48 54 -41 23 4 53 13 68 21 23 11 27 19 23 44 -2
17 -12 36 -21 43 -14 12 -15 11 -2 -5 13 -16 13 -20 0 -28 -10 -6 -10 -9 -1
-9 22 0 13 -19 -13 -26 -14 -3 -25 -10 -25 -14 0 -4 -14 -7 -31 -6 -26 1 -33
7 -43 37 -7 19 -11 40 -9 46 2 5 -3 16 -12 23 -10 8 -15 9 -15 1z"/>
<path d="M2330 2476 c0 -14 4 -27 8 -30 5 -3 6 8 4 25 -5 35 -12 38 -12 5z"/>
<path d="M3501 2495 c1 -19 18 -51 18 -35 0 8 -4 22 -9 30 -5 8 -9 11 -9 5z"/>
<path d="M177 2464 c-4 -4 -7 -25 -7 -46 l0 -38 56 0 55 0 -3 43 -3 42 -45 3
c-25 2 -49 0 -53 -4z m91 -42 c2 -16 -3 -23 -22 -28 -39 -10 -65 3 -58 29 7
29 19 36 51 28 16 -5 27 -15 29 -29z"/>
<path d="M3357 2442 c-7 -35 -5 -37 48 -57 46 -18 100 -14 93 7 -7 19 -28 21
-28 3 0 -12 -5 -15 -17 -10 -10 4 -25 8 -33 9 -22 2 -40 22 -40 45 0 31 -17
34 -23 3z"/>
<path d="M1843 2415 c0 -27 2 -38 4 -22 2 15 2 37 0 50 -2 12 -4 0 -4 -28z"/>
<path d="M450 2440 c0 -5 -7 -6 -17 -3 -11 4 -14 3 -9 -5 4 -7 2 -12 -3 -12
-6 0 -11 5 -11 10 0 6 -13 10 -30 10 -23 0 -30 -4 -30 -20 0 -25 20 -27 21 -2
0 14 2 14 9 -3 l9 -20 1 20 c1 15 3 17 8 5 4 -8 19 -16 35 -18 23 -3 27 0 27
22 0 14 -2 26 -5 26 -3 0 -5 -4 -5 -10z"/>
<path d="M701 2422 c0 -24 1 -25 9 -7 6 14 9 15 9 5 1 -20 47 -24 55 -5 7 20
-12 29 -29 15 -9 -7 -15 -8 -15 -2 0 5 -7 12 -15 16 -11 4 -15 -2 -14 -22z"/>
<path d="M471 2418 c0 -21 1 -21 8 -4 7 19 8 19 13 -1 6 -23 60 -37 77 -20 6
6 36 10 67 9 39 0 53 3 43 9 -12 7 -12 10 0 18 9 6 5 9 -14 9 -18 0 -25 -5
-21 -14 3 -8 1 -14 -4 -14 -6 0 -10 6 -10 13 0 7 -9 13 -20 14 -11 1 -18 -2
-15 -8 4 -5 1 -9 -4 -9 -6 0 -11 5 -11 10 0 6 -10 10 -21 10 -16 0 -20 -5 -16
-20 4 -16 0 -20 -18 -20 -15 0 -22 6 -21 17 0 10 -7 19 -16 21 -13 2 -18 -3
-17 -20z m99 2 c0 -5 -4 -10 -10 -10 -5 0 -10 5 -10 10 0 6 5 10 10 10 6 0 10
-4 10 -10z"/>
<path d="M1520 2422 c0 -4 18 -8 41 -8 26 -1 36 2 28 7 -17 11 -69 12 -69 1z"/>
<path d="M2570 2412 c-41 -16 -69 -52 -40 -52 6 0 9 4 5 10 -7 11 37 35 81 44
29 7 32 5 38 -25 3 -17 6 -46 6 -65 0 -18 4 -35 8 -38 4 -2 5 21 1 52 -4 31
-8 65 -8 75 -1 22 -31 22 -91 -1z"/>
<path d="M1628 2400 c12 -5 22 -17 22 -27 0 -14 2 -15 13 -4 10 10 8 15 -7 27
-11 8 -27 14 -35 13 -10 0 -7 -4 7 -9z"/>
<path d="M2341 2394 c0 -11 3 -14 6 -6 3 7 2 16 -1 19 -3 4 -6 -2 -5 -13z"/>
<path d="M1517 2370 c-4 -19 -8 -66 -11 -105 -5 -65 -4 -67 6 -25 5 25 9 55 9
68 0 13 3 31 8 40 5 9 5 26 1 37 -6 17 -9 14 -13 -15z"/>
<path d="M3346 2372 c-2 -9 -7 -51 -10 -92 -4 -57 -3 -66 4 -35 5 22 10 56 11
75 3 50 5 51 51 34 23 -8 43 -12 46 -9 3 2 -4 8 -14 11 -10 4 -33 13 -51 20
-28 11 -33 11 -37 -4z"/>
<path d="M2336 2348 c5 -8 2 -9 -9 -5 -10 4 -16 2 -14 -5 1 -7 -2 -13 -8 -13
-5 -1 -17 -4 -25 -8 -8 -3 -24 -7 -35 -9 -16 -3 -17 -5 -5 -10 19 -7 102 31
108 50 2 6 -1 12 -8 12 -6 0 -8 -5 -4 -12z"/>
<path d="M3469 2358 c0 -2 -2 -12 -4 -23 -2 -11 -18 -51 -35 -87 -16 -37 -30
-76 -30 -85 1 -10 9 2 19 27 10 25 30 71 45 104 14 32 26 60 26 62 0 4 -20 6
-21 2z"/>
<path d="M174 2336 c-3 -8 -4 -27 -2 -43 3 -27 6 -28 53 -28 l50 0 0 40 0 40
-48 3 c-34 2 -49 -1 -53 -12z m81 -4 c6 -4 11 -18 10 -32 0 -20 -6 -26 -29
-28 -16 -2 -33 1 -39 7 -13 13 -17 52 -5 45 4 -3 8 0 8 5 0 12 40 15 55 3z"/>
<path d="M1635 2328 c-4 -13 -10 -25 -14 -28 -18 -15 -28 -48 -19 -61 8 -11 9
-10 4 4 -3 9 -2 17 3 17 10 0 44 80 37 87 -2 2 -7 -6 -11 -19z"/>
<path d="M1852 2343 c-10 -4 -7 -9 8 -20 25 -18 35 -13 17 9 -6 9 -18 13 -25
11z"/>
<path d="M4496 2323 c9 -38 14 -42 14 -10 0 14 -5 29 -10 32 -7 4 -8 -3 -4
-22z"/>
<path d="M450 2325 c0 -10 -6 -12 -17 -8 -16 6 -16 5 -4 -10 12 -15 12 -17 -3
-11 -9 3 -16 10 -16 15 0 5 -13 9 -30 9 -23 0 -30 -4 -30 -20 0 -25 20 -27 21
-2 0 14 2 14 9 -3 l9 -20 1 20 c1 15 3 17 8 5 4 -8 19 -16 33 -18 23 -3 27 1
31 27 3 17 1 31 -4 31 -4 0 -8 -7 -8 -15z"/>
<path d="M571 2333 c-1 -7 -8 -13 -17 -13 -24 0 -12 -35 14 -38 15 -2 22 2 22
12 0 9 5 16 10 16 6 0 10 -7 10 -15 0 -8 7 -15 15 -15 8 0 15 5 15 11 0 5 -4
7 -10 4 -5 -3 -10 -1 -10 4 0 17 18 13 29 -6 8 -15 10 -11 10 17 0 21 -3 29
-7 20 -4 -8 -20 -15 -37 -15 -17 0 -33 7 -37 15 -4 10 -7 10 -7 3z m-1 -33 c0
-5 -4 -10 -10 -10 -5 0 -10 5 -10 10 0 6 5 10 10 10 6 0 10 -4 10 -10z"/>
<path d="M671 2309 c-1 -22 3 -26 25 -26 18 0 22 2 13 8 -11 7 -9 9 6 9 15 0
17 2 6 13 -10 10 -15 8 -26 -6 -13 -18 -14 -17 -18 5 -4 22 -4 21 -6 -3z"/>
<path d="M471 2298 c0 -22 1 -22 9 -3 7 16 9 17 9 3 1 -17 37 -35 48 -24 4 3
-1 6 -9 6 -9 0 -18 9 -21 20 -7 28 -37 26 -36 -2z"/>
<path d="M2320 2299 c-42 -22 -159 -59 -188 -59 -26 0 -37 -16 -16 -24 8 -3
12 -2 9 4 -3 6 4 10 15 10 30 0 161 40 185 57 11 7 22 13 26 13 13 0 19 -63 8
-77 -7 -7 -9 -16 -5 -20 3 -3 6 0 7 8 1 19 17 -20 18 -43 1 -13 -7 -18 -29
-18 -17 0 -50 -9 -72 -20 -23 -11 -46 -20 -51 -20 -11 0 -36 -30 -37 -43 0 -4
15 3 33 17 45 34 99 56 140 56 l34 0 -15 78 c-19 103 -20 104 -62 81z"/>
<path d="M1930 2295 c47 -18 58 -18 34 0 -10 8 -30 14 -44 14 -22 0 -21 -2 10
-14z"/>
<path d="M2010 2280 c-8 -5 -10 -10 -5 -10 6 0 20 -3 33 -6 16 -5 22 -2 22 10
0 9 -5 16 -11 16 -5 0 -7 -4 -4 -10 3 -5 2 -10 -4 -10 -5 0 -11 4 -13 10 -2 6
-8 6 -18 0z"/>
<path d="M2188 2285 c-3 -3 -22 -6 -42 -7 -20 -1 -36 -5 -36 -9 0 -4 -8 -10
-17 -12 -14 -4 -12 -5 5 -6 12 0 22 3 22 9 0 5 6 7 13 5 6 -3 35 2 62 9 35 10
42 14 24 15 -14 1 -28 -1 -31 -4z"/>
<path d="M4504 2241 c1 -22 4 -37 9 -34 10 6 9 61 -2 67 -4 3 -8 -12 -7 -33z"/>
<path d="M2672 2250 c0 -14 2 -19 5 -12 2 6 2 18 0 25 -3 6 -5 1 -5 -13z"/>
<path d="M174 2216 c-3 -8 -4 -27 -2 -43 3 -27 6 -28 53 -28 l50 0 0 40 0 40
-48 3 c-34 2 -49 -1 -53 -12z m87 -12 c9 -11 10 -20 2 -32 -24 -39 -92 -15
-78 28 8 25 56 27 76 4z"/>
<path d="M441 2190 c0 -28 2 -31 9 -15 7 17 9 17 9 3 1 -25 27 -23 34 2 3 11
1 20 -3 20 -5 0 -11 -8 -13 -17 -3 -13 -5 -12 -6 5 0 13 -5 21 -10 18 -5 -4
-12 0 -14 6 -3 7 -5 -3 -6 -22z"/>
<path d="M2681 2204 c0 -11 3 -14 6 -6 3 7 2 16 -1 19 -3 4 -6 -2 -5 -13z"/>
<path d="M363 2203 c-7 -3 -13 -16 -13 -30 0 -15 5 -23 13 -20 6 2 11 13 10
23 -1 10 0 13 3 6 3 -6 10 -10 15 -6 5 3 9 0 9 -5 0 -6 7 -11 15 -11 8 0 15 9
15 19 0 23 -16 36 -25 21 -4 -7 -11 -7 -18 -2 -7 5 -18 7 -24 5z"/>
<path d="M534 2195 c-6 -13 -8 -14 -15 -3 -6 9 -9 7 -9 -9 0 -16 4 -21 15 -17
8 4 15 11 16 18 0 6 4 2 9 -9 8 -19 9 -19 9 2 1 27 -17 40 -25 18z"/>
<path d="M577 2204 c-11 -11 -8 -44 3 -44 15 0 24 30 13 41 -5 5 -12 6 -16 3z"/>
<path d="M4436 2191 c-4 -7 -5 -15 -2 -18 9 -9 19 4 14 18 -4 11 -6 11 -12 0z"/>
<path d="M4518 2173 c-3 -13 -2 -26 3 -29 14 -8 11 -44 -3 -45 -7 0 -20 -2
-30 -4 -10 -2 -18 5 -22 18 -3 12 -8 18 -11 15 -3 -3 -3 -17 0 -30 5 -20 11
-24 35 -20 43 6 53 23 43 74 -7 35 -10 39 -15 21z"/>
<path d="M2685 2145 c0 -14 3 -25 8 -25 4 0 7 11 7 25 0 14 -3 25 -7 25 -5 0
-8 -11 -8 -25z"/>
<path d="M2614 2134 c3 -9 6 -20 6 -25 0 -13 14 -11 36 7 18 15 18 15 -3 9
-17 -5 -23 -2 -23 9 0 9 -5 16 -11 16 -6 0 -8 -7 -5 -16z"/>
<path d="M2181 2100 c-10 -16 -21 -28 -24 -25 -4 3 -5 2 -2 -2 3 -3 -5 -17
-17 -30 -12 -12 -19 -26 -15 -29 3 -3 13 3 22 13 22 26 67 103 60 103 -3 0
-13 -13 -24 -30z"/>
<path d="M1783 2093 c-10 -36 -10 -451 1 -525 4 -32 11 -58 15 -58 4 0 3 26
-2 58 -15 85 -14 501 1 530 8 13 9 22 3 22 -6 0 -14 -12 -18 -27z"/>
<path d="M1820 2112 c0 -4 8 -9 18 -10 9 -1 28 -3 42 -6 14 -2 29 -5 33 -5 5
-1 5 -7 1 -13 -4 -7 -4 -10 1 -6 8 7 71 -35 92 -62 6 -8 9 -19 6 -23 -3 -5 4
-4 16 2 17 9 24 8 40 -8 13 -13 21 -16 24 -8 2 7 7 -6 11 -28 6 -37 16 -88 62
-325 9 -47 23 -119 31 -160 8 -41 21 -98 29 -126 8 -31 14 -93 13 -160 0 -79
5 -132 20 -190 25 -100 44 -247 37 -294 -10 -60 21 -267 46 -316 26 -49 40
-56 89 -45 52 12 93 41 97 70 2 12 -10 43 -27 69 -56 89 -66 127 -66 252 0 63
6 183 14 266 12 125 13 164 2 235 -7 46 -19 140 -27 209 l-13 125 5 -110 c3
-60 12 -148 20 -194 18 -105 18 -153 -1 -321 -17 -151 -21 -243 -12 -280 5
-17 2 -15 -8 8 -27 59 -24 33 6 -51 17 -45 44 -103 60 -128 36 -56 38 -74 3
-34 -14 17 -23 24 -19 17 11 -21 14 -82 4 -88 -5 -3 -9 2 -9 10 0 8 -4 18 -10
21 -7 4 -7 -3 0 -20 11 -28 5 -49 -10 -40 -5 3 -18 2 -27 -3 -20 -10 -43 -5
-43 9 0 4 8 6 18 3 14 -5 14 -4 2 4 -8 6 -17 9 -21 6 -11 -6 -39 61 -39 96 0
17 -5 40 -10 51 -6 11 -13 90 -15 177 -2 116 -9 182 -25 252 -14 59 -25 150
-30 240 -4 80 -11 156 -17 170 -5 14 -17 70 -27 125 -10 55 -31 159 -46 230
-16 72 -31 153 -35 180 -12 99 -14 102 -48 110 -18 4 -34 8 -37 9 -3 1 -21 16
-40 34 -59 55 -180 105 -180 74z m693 -1700 c4 9 6 7 6 -4 1 -10 -9 -26 -21
-38 -23 -21 -38 -19 -20 3 6 7 9 24 6 38 -5 22 -5 23 9 6 11 -14 16 -15 20 -5z"/>
<path d="M2274 2095 c-27 -14 -65 -39 -84 -57 -19 -18 -39 -33 -44 -33 -13 0
-19 -52 -6 -60 5 -3 11 0 12 7 0 7 2 18 2 23 2 14 51 65 64 65 5 0 12 7 16 15
3 8 12 15 19 15 8 0 20 7 27 15 7 8 18 14 24 14 6 -1 19 1 29 6 9 4 29 5 42 3
14 -3 25 -1 25 3 0 18 -78 8 -126 -16z"/>
<path d="M177 2103 c-4 -3 -7 -21 -7 -39 0 -36 22 -49 65 -40 11 3 26 5 33 5
9 1 12 13 10 38 -2 29 -8 39 -23 42 -20 3 -20 3 -1 -18 15 -17 16 -23 6 -36
-17 -20 -70 -20 -70 0 0 8 -1 18 -1 23 -1 4 9 13 22 19 l24 13 -26 0 c-14 0
-29 -3 -32 -7z"/>
<path d="M1490 2100 c8 -5 22 -9 30 -9 10 0 8 3 -5 9 -27 12 -43 12 -25 0z"/>
<path d="M2673 2103 c-13 -2 -23 -8 -23 -13 0 -5 14 -4 30 1 27 10 42 21 23
18 -5 -1 -18 -4 -30 -6z"/>
<path d="M390 2090 c0 -5 8 -14 18 -19 9 -6 12 -11 5 -11 -6 0 -19 7 -28 16
-18 19 -22 17 -27 -11 -2 -16 3 -20 27 -20 45 0 59 14 39 36 -18 21 -34 25
-34 9z"/>
<path d="M450 2089 c-11 -8 -12 -12 -2 -16 6 -2 12 -9 12 -14 0 -6 -4 -7 -10
-4 -5 3 -10 1 -10 -4 0 -16 20 -13 26 3 10 27 1 47 -16 35z"/>
<path d="M484 2076 c-4 -10 -2 -22 4 -28 8 -8 13 -7 18 6 4 10 2 22 -4 28 -8
8 -13 7 -18 -6z"/>
<path d="M521 2061 c0 -23 1 -24 8 -6 l8 20 5 -20 6 -20 1 20 c1 17 3 18 11 5
8 -12 10 -11 10 6 0 16 -6 22 -25 22 -20 0 -25 -5 -24 -27z"/>
<path d="M584 2076 c-6 -17 2 -36 17 -36 12 0 12 37 -1 45 -6 3 -13 -1 -16 -9z"/>
<path d="M621 2063 c0 -25 1 -26 9 -8 8 18 9 18 9 2 1 -10 5 -16 10 -13 13 9
1 46 -15 46 -9 0 -14 -10 -13 -27z"/>
<path d="M1495 2076 c17 -8 35 -15 42 -16 6 0 14 -8 16 -17 4 -14 5 -14 6 3 1
16 -6 23 -26 27 -16 3 -37 8 -48 11 -11 4 -6 0 10 -8z"/>
<path d="M2625 2060 c-4 -12 -5 -24 -2 -27 3 -2 8 5 12 17 4 12 5 24 2 27 -3
2 -8 -5 -12 -17z"/>
<path d="M2786 2068 c3 -5 10 -6 15 -3 13 9 11 12 -6 12 -8 0 -12 -4 -9 -9z"/>
<path d="M3296 2073 c-11 -12 -6 -21 12 -19 9 0 16 -5 14 -12 -1 -8 2 -11 8
-7 5 3 10 10 10 15 0 12 -36 31 -44 23z"/>
<path d="M4530 2070 c-8 -6 -27 -10 -42 -10 -20 0 -28 -5 -27 -17 0 -11 3 -13
6 -5 2 6 17 12 31 12 28 0 60 15 51 24 -2 3 -11 1 -19 -4z"/>
<path d="M2720 2063 c0 -6 8 -17 18 -24 16 -13 16 -13 2 6 -8 11 -16 22 -17
24 -2 2 -3 0 -3 -6z"/>
<path d="M2401 2044 c0 -11 3 -14 6 -6 3 7 2 16 -1 19 -3 4 -6 -2 -5 -13z"/>
<path d="M3366 2045 c-18 -13 -18 -14 3 -12 11 1 21 7 21 14 0 16 0 16 -24 -2z"/>
<path d="M4230 2031 c0 -6 -16 -29 -36 -51 -38 -42 -39 -56 -1 -17 46 45 59
65 48 72 -6 3 -11 1 -11 -4z"/>
<path d="M3600 1998 c0 -36 12 -31 16 7 1 14 -2 25 -7 25 -5 0 -9 -14 -9 -32z"/>
<path d="M2622 1995 c0 -16 2 -22 5 -12 2 9 2 23 0 30 -3 6 -5 -1 -5 -18z"/>
<path d="M3620 2003 c0 -16 43 -51 82 -68 21 -8 61 -14 90 -13 45 1 47 2 13 5
-83 7 -107 15 -146 50 -21 19 -39 31 -39 26z"/>
<path d="M183 1994 c-7 -3 -13 -23 -13 -45 l0 -39 45 0 c25 0 48 0 53 0 4 0 7
19 7 42 0 41 0 41 -40 44 -22 1 -46 0 -52 -2z m17 -26 c0 7 13 12 32 12 17 0
28 -3 25 -7 -4 -3 -2 -13 5 -20 9 -11 9 -17 -3 -24 -35 -22 -79 -6 -79 30 0
20 2 23 10 11 6 -10 10 -11 10 -2z"/>
<path d="M4452 1980 c0 -14 4 -38 8 -55 l8 -30 0 35 c0 19 -3 44 -8 55 -8 18
-9 18 -8 -5z"/>
<path d="M2406 1863 c1 -71 -1 -146 -5 -168 -4 -22 -4 -51 -1 -65 4 -15 9 12
13 70 9 139 9 290 -1 290 -5 0 -7 -57 -6 -127z"/>
<path d="M3235 1979 c-4 -6 -5 -12 -2 -15 2 -3 7 2 10 11 7 17 1 20 -8 4z"/>
<path d="M368 1969 c-24 -14 -23 -39 2 -39 15 0 20 7 20 25 0 28 1 28 -22 14z"/>
<path d="M500 1955 c0 -25 -25 -36 -32 -13 -3 7 -9 8 -18 3 -11 -7 -10 -10 6
-16 34 -14 54 -9 64 14 6 16 9 18 9 5 1 -24 88 -23 94 1 4 14 5 14 6 -1 0 -10
5 -18 9 -18 10 0 9 34 -1 38 -17 6 -27 1 -27 -13 0 -8 -4 -15 -10 -15 -5 0
-10 7 -10 16 0 14 -2 14 -22 0 -20 -14 -23 -14 -35 4 -19 27 -33 25 -33 -5z"/>
<path d="M2052 1950 c0 -19 2 -27 5 -17 2 9 2 25 0 35 -3 9 -5 1 -5 -18z"/>
<path d="M400 1950 c0 -11 7 -20 15 -20 8 0 15 9 15 20 0 11 -7 20 -15 20 -8
0 -15 -9 -15 -20z"/>
<path d="M440 1960 c0 -5 7 -7 15 -4 8 4 15 8 15 10 0 2 -7 4 -15 4 -8 0 -15
-4 -15 -10z"/>
<path d="M2721 1954 c0 -11 3 -14 6 -6 3 7 2 16 -1 19 -3 4 -6 -2 -5 -13z"/>
<path d="M2760 1937 c0 -20 3 -38 8 -41 8 -5 7 62 -2 71 -3 4 -6 -10 -6 -30z"/>
<path d="M4135 1940 c-3 -5 -29 -10 -57 -10 -28 0 -49 -3 -46 -6 13 -13 91 -6
106 10 9 9 13 16 10 16 -4 0 -10 -4 -13 -10z"/>
<path d="M1431 1904 c0 -11 3 -14 6 -6 3 7 2 16 -1 19 -3 4 -6 -2 -5 -13z"/>
<path d="M1484 1854 c0 -37 -6 -70 -13 -77 -7 -7 -12 -7 -11 -2 2 6 1 37 0 70
-2 45 -4 53 -9 31 -10 -47 -1 -116 15 -116 8 0 14 5 14 10 0 6 11 8 25 4 23
-6 25 -4 24 27 -2 31 -2 31 -6 7 -8 -50 -23 -30 -23 30 0 31 -4 62 -8 68 -4 7
-7 -17 -8 -52z"/>
<path d="M3244 1907 c-3 -8 -6 -40 -7 -73 -2 -47 1 -59 13 -59 9 0 16 10 17
25 1 14 0 18 -3 8 -3 -10 -10 -18 -16 -18 -7 0 -8 16 -4 46 3 26 6 53 6 61 0
8 5 11 12 7 7 -4 8 -3 4 4 -9 16 -15 15 -22 -1z"/>
<path d="M4252 1825 c-1 -56 -6 -105 -11 -110 -5 -6 -5 -19 -1 -30 12 -31 22
55 18 155 l-4 85 -2 -100z"/>
<path d="M2038 1874 c-2 -19 0 -37 4 -40 4 -3 8 13 8 35 0 51 -6 53 -12 5z"/>
<path d="M1530 1870 c0 -16 4 -30 8 -30 5 0 7 14 4 30 -2 17 -6 30 -8 30 -2 0
-4 -13 -4 -30z"/>
<path d="M2021 1884 c0 -11 3 -14 6 -6 3 7 2 16 -1 19 -3 4 -6 -2 -5 -13z"/>
<path d="M2641 1875 c-2 -72 35 -135 53 -89 9 24 7 77 -5 94 -7 11 -9 7 -8
-20 4 -98 -7 -103 -27 -12 -8 39 -13 47 -13 27z"/>
<path d="M2725 1836 c5 -43 4 -66 -3 -66 -6 0 -13 6 -15 13 -3 7 -6 5 -6 -5
-1 -19 24 -25 33 -9 5 8 7 44 5 98 0 13 -5 25 -11 29 -6 4 -8 -15 -3 -60z"/>
<path d="M3868 1870 c-3 -16 -1 -30 4 -30 4 0 8 14 8 30 0 17 -2 30 -4 30 -2
0 -6 -13 -8 -30z"/>
<path d="M3277 1876 c-4 -10 -5 -21 -2 -24 9 -9 17 6 13 25 -3 17 -4 17 -11
-1z"/>
<path d="M3592 1810 c0 -78 1 -81 9 -36 4 28 4 66 -1 85 -6 29 -8 18 -8 -49z"/>
<path d="M4476 1869 c-8 -29 9 -109 24 -109 5 0 12 5 15 11 5 6 12 4 20 -8 9
-12 17 -15 23 -8 15 15 21 82 11 113 l-8 27 0 -30 c1 -16 1 -48 0 -69 -1 -37
-2 -38 -15 -21 -11 16 -16 17 -29 6 -14 -11 -16 -6 -22 36 -10 76 -11 80 -19
52z"/>
<path d="M177 1874 c-4 -4 -7 -25 -7 -46 l0 -38 56 0 55 0 -3 43 -3 42 -45 3
c-25 2 -49 0 -53 -4z m87 -38 c9 -35 -39 -50 -68 -20 -29 28 -18 44 30 42 24
-1 34 -7 38 -22z"/>
<path d="M2774 1843 c2 -24 -1 -46 -6 -50 -7 -3 -8 -1 -4 5 4 7 2 12 -3 12
-14 0 -14 -17 0 -26 23 -14 32 14 21 58 l-11 43 3 -42z"/>
<path d="M3320 1851 c0 -43 -11 -91 -21 -91 -5 0 -9 18 -9 40 0 22 -4 40 -9
40 -12 0 -2 -71 11 -85 16 -18 38 26 38 77 0 26 -2 48 -5 48 -3 0 -5 -13 -5
-29z"/>
<path d="M4517 1843 c8 -52 13 -54 13 -5 0 23 -4 42 -9 42 -6 0 -7 -17 -4 -37z"/>
<path d="M365 1847 c-19 -15 -13 -37 11 -37 8 0 14 10 14 25 0 29 0 29 -25 12z"/>
<path d="M565 1852 c13 -9 17 -32 6 -32 -5 0 -11 7 -15 15 -3 8 -17 15 -31 15
-18 0 -25 -5 -25 -20 0 -21 -26 -28 -32 -8 -3 7 -9 8 -18 3 -10 -6 -8 -10 10
-17 30 -11 60 -1 61 20 0 14 2 13 8 -3 l8 -20 5 20 c5 16 6 17 7 3 1 -11 9
-18 21 -18 15 0 20 7 20 25 0 17 -5 25 -17 25 -10 0 -14 -4 -8 -8z"/>
<path d="M601 1840 c-1 -24 3 -26 44 -27 40 -1 45 1 44 20 0 21 -1 21 -9 2 -6
-13 -9 -15 -9 -5 -1 18 -51 24 -52 6 0 -6 -4 -2 -9 9 -8 18 -9 18 -9 -5z m44
-10 c3 -5 1 -10 -4 -10 -6 0 -11 5 -11 10 0 6 2 10 4 10 3 0 8 -4 11 -10z"/>
<path d="M2146 1833 c9 -38 14 -42 14 -10 0 14 -5 29 -10 32 -7 4 -8 -3 -4
-22z"/>
<path d="M400 1830 c0 -11 7 -20 15 -20 8 0 15 9 15 20 0 11 -7 20 -15 20 -8
0 -15 -9 -15 -20z"/>
<path d="M440 1840 c0 -5 7 -7 15 -4 8 4 15 8 15 10 0 2 -7 4 -15 4 -8 0 -15
-4 -15 -10z"/>
<path d="M3845 1815 c0 -13 3 -21 8 -18 4 2 7 10 7 18 0 8 -3 16 -7 18 -5 3
-8 -5 -8 -18z"/>
<path d="M4231 1824 c0 -11 3 -14 6 -6 3 7 2 16 -1 19 -3 4 -6 -2 -5 -13z"/>
<path d="M2022 1810 c0 -14 -2 -36 -5 -50 -2 -14 -7 -43 -11 -65 -5 -36 -5
-37 4 -10 6 17 12 44 14 62 3 18 7 37 11 43 3 5 2 18 -4 27 -8 15 -9 14 -9 -7z"/>
<path d="M3342 1789 c-7 -11 -11 -24 -8 -27 10 -9 28 15 24 32 -2 14 -5 13
-16 -5z"/>
<path d="M2160 1767 c0 -9 5 -17 10 -17 6 0 8 -12 5 -27 -5 -27 -5 -27 5 -5 7
18 6 29 -5 45 -13 18 -15 19 -15 4z"/>
<path d="M3845 1761 c-3 -5 -2 -12 3 -15 5 -3 9 1 9 9 0 17 -3 19 -12 6z"/>
<path d="M177 1754 c-4 -4 -7 -25 -7 -46 l0 -39 53 3 52 3 0 40 0 40 -45 3
c-25 2 -49 0 -53 -4z m91 -38 c5 -24 -11 -34 -48 -28 -24 3 -30 9 -30 29 0 22
4 24 37 21 28 -2 39 -8 41 -22z"/>
<path d="M366 1730 c-19 -20 -15 -40 10 -40 9 0 14 11 14 30 0 35 1 34 -24 10z"/>
<path d="M501 1723 c-1 -22 -6 -33 -16 -33 -14 0 -19 12 -16 33 0 4 -5 7 -13
7 -8 0 -14 -9 -13 -19 1 -21 40 -37 59 -25 6 4 33 6 60 5 26 -1 48 3 48 9 0 5
-8 7 -17 3 -15 -5 -14 -3 2 10 19 15 19 16 -12 15 -18 -1 -30 -5 -27 -10 3 -4
0 -8 -5 -8 -6 0 -11 5 -11 10 0 6 -6 10 -14 10 -8 0 -17 6 -19 13 -3 6 -6 -3
-6 -20z m29 -13 c0 -5 -4 -10 -10 -10 -5 0 -10 5 -10 10 0 6 5 10 10 10 6 0
10 -4 10 -10z"/>
<path d="M400 1710 c0 -11 7 -20 15 -20 8 0 15 9 15 20 0 11 -7 20 -15 20 -8
0 -15 -9 -15 -20z"/>
<path d="M3831 1695 c-7 -20 -16 -33 -20 -30 -5 2 -6 -7 -3 -20 2 -14 6 -25 7
-25 6 0 37 101 33 105 -2 3 -10 -11 -17 -30z"/>
<path d="M4000 1721 c0 -6 4 -13 10 -16 6 -3 7 1 4 9 -7 18 -14 21 -14 7z"/>
<path d="M2180 1683 c0 -5 5 -15 10 -23 8 -12 10 -11 10 8 0 12 -4 22 -10 22
-5 0 -10 -3 -10 -7z"/>
<path d="M1978 1635 c-6 -30 -2 -32 12 -6 6 11 6 22 1 25 -5 3 -11 -5 -13 -19z"/>
<path d="M3602 1635 c0 -16 2 -22 5 -12 2 9 2 23 0 30 -3 6 -5 -1 -5 -18z"/>
<path d="M4239 1638 c0 -7 -2 -23 -3 -35 -1 -12 0 -20 4 -18 8 5 11 65 4 65
-2 0 -4 -6 -5 -12z"/>
<path d="M174 1626 c-3 -8 -4 -27 -2 -43 3 -27 6 -28 53 -28 l50 0 0 40 0 40
-48 3 c-34 2 -49 -1 -53 -12z m80 -2 c20 -8 20 -23 -1 -46 -24 -27 -59 -23
-67 7 -4 14 -4 30 -1 35 7 11 45 13 69 4z"/>
<path d="M208 1583 c7 -3 16 -2 19 1 4 3 -2 6 -13 5 -11 0 -14 -3 -6 -6z"/>
<path d="M2197 1608 c8 -44 13 -48 13 -10 0 17 -4 34 -10 37 -6 4 -7 -6 -3
-27z"/>
<path d="M352 1603 c2 -17 10 -29 21 -31 21 -4 23 23 3 44 -21 21 -28 17 -24
-13z"/>
<path d="M511 1603 c-1 -23 4 -33 14 -33 8 0 15 8 16 18 0 14 2 14 9 -3 8 -19
9 -18 9 4 1 18 -3 22 -18 18 -13 -3 -21 1 -24 12 -3 9 -5 1 -6 -16z"/>
<path d="M4031 1604 c0 -11 3 -14 6 -6 3 7 2 16 -1 19 -3 4 -6 -2 -5 -13z"/>
<path d="M411 1593 c10 -11 10 -14 2 -9 -7 4 -13 2 -13 -3 0 -6 7 -11 15 -11
8 0 15 9 15 20 0 12 -7 20 -16 20 -14 0 -15 -2 -3 -17z"/>
<path d="M443 1591 c1 -13 9 -18 29 -19 15 0 28 4 28 9 0 6 -4 8 -9 5 -13 -8
-42 4 -35 15 3 5 1 9 -5 9 -5 0 -9 -8 -8 -19z"/>
<path d="M470 1600 c0 -5 4 -10 9 -10 6 0 13 5 16 10 3 6 -1 10 -9 10 -9 0
-16 -4 -16 -10z"/>
<path d="M3802 1590 c-7 -11 -8 -20 -3 -20 9 0 24 30 18 36 -1 2 -8 -6 -15
-16z"/>
<path d="M1981 1582 c0 -13 -5 -20 -11 -17 -6 4 -7 -1 -3 -11 5 -15 7 -15 15
0 5 9 7 24 5 34 -3 12 -5 10 -6 -6z"/>
<path d="M2396 1585 c-3 -9 -5 -38 -5 -63 2 -46 2 -46 9 13 7 64 6 76 -4 50z"/>
<path d="M2210 1526 c0 -19 3 -37 8 -40 4 -2 6 13 4 35 -5 48 -12 51 -12 5z"/>
<path d="M3797 1553 c-3 -5 -1 -17 4 -28 6 -17 7 -16 6 8 -1 28 -3 32 -10 20z"/>
<path d="M4042 1530 c0 -19 2 -27 5 -17 2 9 2 25 0 35 -3 9 -5 1 -5 -18z"/>
<path d="M4232 1540 c0 -14 2 -19 5 -12 2 6 2 18 0 25 -3 6 -5 1 -5 -13z"/>
<path d="M3613 1503 c0 -29 3 -53 6 -52 3 0 15 4 26 9 16 7 17 9 3 9 -11 1
-20 15 -27 44 l-9 42 1 -52z"/>
<path d="M1970 1519 c-1 -34 -15 -41 -54 -25 -20 8 -36 11 -36 6 0 -4 13 -12
28 -18 16 -5 35 -17 44 -26 15 -14 17 -12 23 25 4 22 4 43 1 46 -3 4 -6 0 -6
-8z"/>
<path d="M172 1478 l3 -43 50 0 50 0 3 43 3 42 -56 0 -56 0 3 -42z m86 23 c8
-5 12 -17 10 -27 -2 -14 -13 -20 -45 -22 -41 -3 -46 3 -33 38 1 3 2 8 1 13 -1
10 51 9 67 -2z"/>
<path d="M357 1498 c-2 -7 -1 -22 3 -33 6 -17 8 -15 12 13 4 31 -5 45 -15 20z"/>
<path d="M721 1479 c0 -28 2 -31 9 -14 6 13 9 15 9 5 1 -9 12 -16 28 -17 19
-1 22 1 12 8 -10 6 -10 9 -1 9 6 0 12 5 12 10 0 6 -7 10 -15 10 -8 0 -15 -5
-15 -12 0 -6 -9 -1 -20 12 l-20 23 1 -34z"/>
<path d="M1820 1499 c0 -5 12 -9 27 -9 30 0 27 9 -6 15 -11 2 -21 0 -21 -6z"/>
<path d="M563 1484 c-3 -8 -3 -18 1 -21 3 -4 6 -1 6 5 0 7 5 12 12 12 24 0
-13 -25 -37 -25 -18 -1 -25 5 -25 17 0 10 -7 18 -15 18 -8 0 -15 -4 -15 -10 0
-5 -5 -10 -11 -10 -5 0 -7 5 -4 10 4 6 -7 10 -24 10 -17 0 -31 -4 -31 -10 0
-5 10 -9 23 -7 12 1 21 -3 20 -9 -1 -7 8 -12 20 -13 12 0 39 -3 60 -7 40 -7
69 8 61 31 -8 21 -34 27 -41 9z"/>
<path d="M1790 1489 c0 -5 5 -7 10 -4 6 3 10 8 10 11 0 2 -4 4 -10 4 -5 0 -10
-5 -10 -11z"/>
<path d="M2313 1493 c15 -2 37 -2 50 0 12 2 0 4 -28 4 -27 0 -38 -2 -22 -4z"/>
<path d="M380 1470 c0 -11 7 -20 15 -20 8 0 15 9 15 20 0 11 -7 20 -15 20 -8
0 -15 -9 -15 -20z"/>
<path d="M613 1470 c1 -11 5 -20 9 -20 4 0 8 9 8 20 0 11 -4 20 -9 20 -6 0 -9
-9 -8 -20z"/>
<path d="M643 1475 c2 -14 11 -20 35 -21 17 -1 32 3 32 8 0 5 -4 6 -10 3 -5
-3 -10 -2 -10 4 0 5 6 12 13 14 6 3 0 6 -15 6 -20 1 -28 -4 -29 -16 0 -16 -2
-15 -10 2 -9 20 -9 20 -6 0z"/>
<path d="M2240 1469 l-25 -20 33 16 c17 8 32 18 32 20 0 10 -16 4 -40 -16z"/>
<path d="M4053 1469 c-1 -12 1 -19 4 -15 3 3 14 1 24 -5 14 -7 26 -5 46 6 26
15 16 14 -24 -2 -11 -4 -14 -3 -9 5 5 8 2 10 -8 6 -11 -4 -16 0 -16 10 0 24
-15 19 -17 -5z"/>
<path d="M4220 1482 c0 -7 -12 -13 -27 -13 -26 -2 -26 -2 -4 -6 24 -5 50 11
38 24 -4 3 -7 1 -7 -5z"/>
<path d="M1814 1468 c-25 -11 -34 -46 -34 -123 0 -45 4 -55 25 -69 38 -25 119
-18 120 11 1 4 7 25 14 46 7 20 10 43 8 50 -3 6 -6 1 -6 -13 -1 -20 -3 -22
-12 -10 -8 12 -10 9 -6 -13 7 -42 -22 -68 -73 -65 -45 2 -56 15 -55 63 4 106
4 108 25 102 10 -3 21 0 23 6 2 7 19 5 50 -6 57 -19 63 -6 7 17 -46 18 -56 19
-86 4z"/>
<path d="M430 1460 c-9 -6 -10 -10 -3 -10 6 0 15 5 18 10 8 12 4 12 -15 0z"/>
<path d="M2263 1450 c-21 -12 -33 -28 -33 -42 0 -24 7 -20 24 14 8 16 22 23
45 25 19 2 36 5 38 7 3 2 18 0 34 -4 22 -7 29 -6 26 3 -7 21 -98 20 -134 -3z"/>
<path d="M3698 1458 c18 -5 39 -5 47 -1 8 5 -5 9 -33 9 -45 1 -46 1 -14 -8z"/>
<path d="M3762 1451 c-8 -4 -5 -11 8 -19 16 -10 20 -10 20 2 0 19 -13 27 -28
17z"/>
<path d="M3621 1431 c-12 -7 -12 -15 -4 -33 l11 -23 6 25 c6 23 11 25 53 21
33 -2 42 -6 32 -13 -10 -7 -7 -9 11 -6 24 4 25 2 23 -36 -1 -23 1 -31 3 -18 3
12 10 20 15 17 11 -7 12 25 1 41 -18 27 -121 44 -151 25z"/>
<path d="M4060 1429 c0 -5 5 -7 10 -4 6 3 10 8 10 11 0 2 -4 4 -10 4 -5 0 -10
-5 -10 -11z"/>
<path d="M4108 1423 c-21 -8 -38 -20 -38 -25 0 -6 8 -7 18 -3 87 37 132 39
132 4 0 -10 4 -20 10 -24 5 -3 7 -12 3 -20 -3 -8 0 -15 6 -15 14 0 14 27 0 36
-6 3 -8 16 -5 29 4 16 1 25 -10 29 -27 10 -77 6 -116 -11z"/>
<path d="M1932 1421 c-10 -6 -9 -10 7 -14 14 -3 21 0 21 9 0 16 -9 18 -28 5z"/>
<path d="M183 1403 c-7 -2 -13 -22 -13 -43 0 -40 11 -50 55 -50 42 0 55 11 55
44 0 18 -5 37 -12 44 -12 12 -62 15 -85 5z m82 -22 c2 -4 1 -18 -2 -30 -5 -18
-12 -22 -42 -19 -30 3 -35 7 -34 26 0 12 1 24 2 26 2 7 71 4 76 -3z"/>
<path d="M2380 1393 c0 -6 3 -13 8 -17 10 -11 9 -50 -3 -58 -6 -5 -5 -8 3 -8
10 0 9 -4 -3 -16 -11 -12 -28 -15 -61 -11 -30 3 -43 0 -41 -7 6 -18 76 -19
103 -1 22 14 25 22 22 67 -2 30 -8 53 -15 56 -7 2 -13 0 -13 -5z"/>
<path d="M357 1383 c-3 -5 -1 -17 3 -28 6 -17 7 -16 12 8 5 25 -5 37 -15 20z"/>
<path d="M578 1379 c-10 -6 -18 -17 -18 -24 0 -8 -9 -15 -20 -15 -14 0 -20 7
-20 21 0 24 -23 21 -28 -3 -3 -18 38 -31 73 -24 11 3 27 5 35 5 9 1 16 10 17
21 1 11 -2 18 -7 15 -4 -3 -10 -1 -12 4 -2 6 -10 6 -20 0z m7 -19 c3 -5 1 -10
-4 -10 -6 0 -11 5 -11 10 0 6 2 10 4 10 3 0 8 -4 11 -10z"/>
<path d="M667 1371 c-2 -10 -1 -25 4 -32 6 -10 9 -4 9 19 0 36 -5 42 -13 13z"/>
<path d="M692 1364 c2 -21 9 -28 26 -29 27 -2 40 21 23 38 -10 9 -16 7 -28 -8
-12 -16 -14 -16 -10 -3 3 10 1 20 -4 24 -7 4 -9 -4 -7 -22z"/>
<path d="M384 1366 c-4 -10 -2 -22 4 -28 8 -8 13 -7 18 6 4 10 2 22 -4 28 -8
8 -13 7 -18 -6z"/>
<path d="M420 1368 c0 -5 6 -6 13 -2 8 5 8 2 -2 -9 -14 -18 -14 -19 22 -20 15
-1 23 5 25 19 2 17 -2 21 -28 21 -16 0 -30 -4 -30 -9z"/>
<path d="M633 1364 c-7 -19 11 -41 21 -25 4 6 2 11 -3 11 -6 0 -11 5 -11 11 0
5 5 7 10 4 6 -3 10 -1 10 4 0 17 -20 13 -27 -5z"/>
<path d="M2247 1350 c9 -53 24 -83 17 -35 -4 22 -10 47 -15 55 -5 9 -6 1 -2
-20z"/>
<path d="M3598 1326 l-3 -54 60 -5 c33 -3 68 -8 78 -12 14 -6 17 -2 17 21 0
19 -3 25 -9 16 -10 -17 -110 -10 -122 9 -5 8 -8 27 -6 42 2 15 0 30 -4 32 -4
3 -9 -19 -11 -49z"/>
<path d="M4074 1355 c3 -13 11 -37 18 -52 6 -15 10 -34 9 -42 -2 -9 3 -12 16
-7 10 4 46 10 81 13 49 5 62 9 57 20 -3 8 -5 22 -6 31 0 11 -4 9 -12 -9 -11
-22 -19 -26 -67 -28 -51 -2 -56 0 -67 26 -7 15 -13 37 -13 50 0 13 -5 23 -11
23 -7 0 -9 -10 -5 -25z"/>
<path d="M174 1276 c-3 -8 -4 -27 -2 -43 3 -27 6 -28 53 -28 l50 0 0 40 0 40
-48 3 c-34 2 -49 -1 -53 -12z m86 -15 c7 -15 6 -23 -6 -35 -18 -18 -39 -22
-28 -5 5 8 1 8 -14 0 -26 -14 -35 -1 -26 34 5 19 12 25 35 25 18 0 32 -7 39
-19z"/>
<path d="M422 1253 c-7 -19 -11 -22 -11 -10 -1 14 -8 18 -28 15 -46 -5 -35
-33 14 -35 40 -3 42 -2 41 27 -1 37 -4 37 -16 3z m-32 -13 c0 -5 -4 -10 -10
-10 -5 0 -10 5 -10 10 0 6 5 10 10 10 6 0 10 -4 10 -10z"/>
<path d="M1770 1266 c0 -15 37 -32 47 -22 4 3 1 6 -5 6 -6 0 -18 7 -26 16 -14
13 -16 13 -16 0z"/>
<path d="M2391 1260 l-23 -20 23 2 c20 3 25 -3 30 -32 l6 -35 2 32 c0 17 -3
34 -9 38 -5 3 -7 12 -3 20 7 19 3 18 -26 -5z"/>
<path d="M750 1250 c0 -11 -7 -20 -15 -20 -18 0 -20 16 -2 23 6 3 2 4 -10 4
-13 -1 -23 -7 -23 -14 0 -7 -4 -13 -10 -13 -5 0 -10 6 -10 13 0 20 -36 18 -37
-2 -1 -16 7 -18 58 -19 44 0 59 3 59 14 0 8 5 14 10 14 6 0 10 -6 10 -13 0 -7
12 -14 26 -15 19 -1 25 2 22 16 -2 10 -12 16 -23 15 -11 -1 -27 3 -37 8 -15 8
-18 6 -18 -11z"/>
<path d="M450 1250 c0 -5 4 -10 9 -10 6 0 13 5 16 10 3 6 -1 10 -9 10 -9 0
-16 -4 -16 -10z"/>
<path d="M493 1241 c1 -11 9 -19 22 -20 11 0 41 -4 68 -7 46 -6 47 -5 47 20 0
20 -5 26 -21 26 -16 0 -20 -5 -16 -20 4 -15 0 -20 -16 -20 -12 0 -29 5 -37 10
-13 8 -12 10 5 10 15 0 16 3 7 12 -9 9 -15 9 -24 0 -15 -15 -32 -16 -23 -2 3
6 2 10 -4 10 -5 0 -9 -8 -8 -19z m127 -1 c0 -5 -4 -10 -10 -10 -5 0 -10 5 -10
10 0 6 5 10 10 10 6 0 10 -4 10 -10z"/>
<path d="M1910 1245 c-11 -14 -11 -17 -1 -11 11 7 13 -10 9 -98 -2 -61 0 -97
5 -84 4 12 6 64 5 116 -3 86 -4 93 -18 77z"/>
<path d="M2262 1218 c1 -37 2 -39 5 -10 2 17 9 32 14 32 6 0 7 5 4 10 -14 23
-25 7 -23 -32z"/>
<path d="M3576 1189 c-7 -75 -8 -174 -1 -167 3 3 6 37 6 77 1 39 4 71 9 71 4
0 6 14 4 32 -2 18 1 35 8 40 10 6 9 8 -3 8 -12 0 -18 -14 -23 -61z"/>
<path d="M3648 1243 c6 -2 18 -2 25 0 6 3 1 5 -13 5 -14 0 -19 -2 -12 -5z"/>
<path d="M4135 1241 l-30 -6 -2 -79 c-1 -43 0 -76 3 -74 3 3 6 36 7 74 l2 68
35 9 c19 5 51 7 72 5 21 -2 38 0 38 4 0 9 -81 9 -125 -1z"/>
<path d="M460 1230 c-13 -8 -12 -10 3 -10 9 0 17 5 17 10 0 12 -1 12 -20 0z"/>
<path d="M1756 1162 c-3 -42 -2 -95 3 -117 8 -34 9 -29 6 32 -1 39 1 90 5 112
4 23 4 44 0 46 -4 3 -11 -30 -14 -73z"/>
<path d="M1843 1233 c9 -2 23 -2 30 0 6 3 -1 5 -18 5 -16 0 -22 -2 -12 -5z"/>
<path d="M2313 1233 c9 -2 25 -2 35 0 9 3 1 5 -18 5 -19 0 -27 -2 -17 -5z"/>
<path d="M3715 1230 c27 -12 43 -12 25 0 -8 5 -22 9 -30 9 -10 0 -8 -3 5 -9z"/>
<path d="M4263 1085 c0 -113 2 -127 7 -70 4 39 4 102 0 140 -5 57 -7 43 -7
-70z"/>
<path d="M3735 1137 c0 -65 -8 -118 -21 -138 -4 -6 -8 -24 -9 -38 0 -14 -7
-59 -15 -98 -12 -68 -15 -73 -39 -73 -35 0 -55 14 -46 31 6 10 5 11 -4 3 -16
-15 -3 -42 22 -46 55 -8 63 -1 77 80 8 42 14 87 14 100 0 12 4 22 10 22 5 0 6
3 3 7 -4 3 -2 12 4 19 13 16 25 179 13 187 -5 3 -9 -23 -9 -56z"/>
<path d="M177 1164 c-4 -4 -7 -22 -7 -40 0 -36 12 -43 70 -40 34 1 35 2 35 41
l0 40 -45 3 c-25 2 -49 0 -53 -4z m88 -22 c8 -22 -14 -42 -45 -42 -30 0 -46
30 -28 48 16 16 66 11 73 -6z"/>
<path d="M2262 1145 c0 -16 2 -22 5 -12 2 9 2 23 0 30 -3 6 -5 -1 -5 -18z"/>
<path d="M621 1152 c0 -7 -6 -10 -12 -7 -6 4 -13 -2 -16 -14 -3 -12 -12 -21
-19 -21 -8 0 -14 -4 -14 -10 0 -5 7 -10 15 -10 8 0 15 4 15 10 0 5 7 7 15 4
17 -7 29 16 22 43 -3 10 -5 12 -6 5z"/>
<path d="M360 1140 c-7 -4 -10 -15 -7 -23 5 -13 36 -16 78 -8 9 2 7 31 -3 31
-4 0 -8 -4 -8 -10 0 -5 -5 -10 -11 -10 -5 0 -8 4 -5 9 8 12 -28 21 -44 11z
m25 -10 c3 -5 1 -10 -4 -10 -6 0 -11 5 -11 10 0 6 2 10 4 10 3 0 8 -4 11 -10z"/>
<path d="M454 1136 c-4 -10 -2 -22 4 -28 8 -8 13 -7 18 6 4 10 2 22 -4 28 -8
8 -13 7 -18 -6z"/>
<path d="M497 1143 c-4 -3 -7 -14 -7 -23 0 -22 57 -23 65 -2 10 26 -14 40 -31
18 -12 -18 -19 -15 -15 7 1 9 -4 9 -12 0z"/>
<path d="M643 1135 c-2 -8 -3 -20 0 -27 3 -7 6 -2 7 12 1 25 1 25 10 3 9 -23
30 -32 30 -13 0 6 -6 10 -12 10 -9 0 -8 4 2 10 8 5 13 10 10 11 -3 0 -13 2
-23 4 -10 2 -21 -3 -24 -10z"/>
<path d="M720 1131 c0 -11 4 -22 9 -25 5 -3 8 5 7 19 -1 29 -16 34 -16 6z"/>
<path d="M752 1137 c-13 -15 1 -42 17 -33 13 9 15 33 2 40 -5 3 -13 0 -19 -7z"/>
<path d="M2418 1095 c-4 -64 12 -57 19 9 4 28 2 46 -5 46 -5 0 -12 -25 -14
-55z"/>
<path d="M696 1132 c-2 -4 -1 -14 5 -22 7 -12 9 -10 9 8 0 23 -5 28 -14 14z"/>
<path d="M2262 1080 c0 -23 16 -68 17 -48 1 9 4 25 7 35 5 14 4 15 -4 4 -8
-11 -11 -10 -15 5 -2 10 -5 12 -5 4z"/>
<path d="M182 1051 c-8 -5 -12 -22 -10 -42 3 -34 4 -34 56 -37 l53 -3 -3 43
c-3 41 -4 42 -43 45 -22 1 -46 -1 -53 -6z m84 -22 c3 -5 0 -18 -7 -30 -9 -17
-13 -19 -20 -8 -5 9 -9 10 -9 2 0 -6 -9 -9 -20 -6 -24 6 -26 38 -4 51 18 10
51 5 60 -9z"/>
<path d="M4106 1052 c-3 -5 1 -29 8 -53 l14 -44 -5 50 c-6 55 -8 61 -17 47z"/>
<path d="M751 1018 c0 -27 2 -29 8 -13 l8 20 5 -20 c5 -17 6 -18 7 -2 0 10 -6
25 -14 33 -13 14 -15 12 -14 -18z"/>
<path d="M356 1021 c-9 -14 4 -41 20 -41 8 0 14 10 14 25 0 25 -23 35 -34 16z
m21 -23 c-3 -8 -6 -5 -6 6 -1 11 2 17 5 13 3 -3 4 -12 1 -19z"/>
<path d="M400 1010 c0 -13 6 -20 18 -19 10 0 12 3 5 6 -7 2 -13 9 -13 14 0 6
5 7 10 4 6 -3 10 -1 10 4 0 6 -7 11 -15 11 -8 0 -15 -9 -15 -20z"/>
<path d="M441 1008 c0 -22 1 -22 8 -3 l8 20 5 -20 c5 -18 6 -18 7 3 1 13 -5
22 -14 22 -9 0 -15 -9 -14 -22z"/>
<path d="M480 1010 c0 -11 7 -20 15 -20 8 0 15 9 15 20 0 11 -7 20 -15 20 -8
0 -15 -9 -15 -20z"/>
<path d="M521 1014 c-1 -16 7 -24 25 -28 15 -4 29 -5 32 -1 3 3 -2 5 -11 5
-11 0 -17 8 -18 23 0 21 -1 21 -8 2 l-8 -20 -5 20 c-5 19 -6 19 -7 -1z"/>
<path d="M590 1013 c0 -15 2 -16 10 -3 5 8 10 10 10 5 0 -6 -5 -16 -12 -23 -9
-9 -8 -12 4 -12 9 0 19 4 23 10 3 5 12 7 20 3 10 -3 15 2 15 16 0 12 -4 21
-10 21 -5 0 -7 -8 -3 -17 6 -17 5 -17 -14 0 -11 9 -25 17 -31 17 -7 0 -12 -8
-12 -17z"/>
<path d="M671 1013 c-1 -14 5 -23 14 -23 8 0 15 5 15 12 0 9 3 9 12 0 7 -7 17
-12 23 -12 5 0 3 5 -5 10 -13 9 -13 11 0 20 12 8 9 9 -12 8 -17 -2 -28 -8 -29
-18 0 -10 -3 -9 -9 5 -8 19 -9 19 -9 -2z"/>
<path d="M792 1013 c2 -9 9 -18 16 -19 7 -1 8 0 2 3 -17 8 -11 23 7 16 11 -4
14 -3 9 5 -11 18 -38 14 -34 -5z"/>
<path d="M2423 990 c0 -25 2 -35 4 -22 2 12 2 32 0 45 -2 12 -4 2 -4 -23z"/>
<path d="M1891 979 c-7 -23 -14 -69 -16 -103 -3 -54 -2 -50 15 39 20 107 21
130 1 64z"/>
<path d="M2283 995 c0 -8 4 -12 9 -9 5 3 6 10 3 15 -9 13 -12 11 -12 -6z"/>
<path d="M3583 985 c-3 -9 -3 -18 -1 -21 3 -3 8 4 11 16 6 23 -1 27 -10 5z"/>
<path d="M2297 935 c3 -22 7 -42 9 -44 8 -9 2 45 -6 64 -7 14 -8 8 -3 -20z"/>
<path d="M2406 909 c3 -54 14 -63 14 -11 0 22 -4 43 -8 46 -4 3 -7 -13 -6 -35z"/>
<path d="M3582 925 c0 -16 4 -43 8 -60 11 -42 11 -1 1 50 -7 34 -9 35 -9 10z"/>
<path d="M4131 934 c0 -11 3 -14 6 -6 3 7 2 16 -1 19 -3 4 -6 -2 -5 -13z"/>
<path d="M172 903 l3 -38 50 0 50 0 3 38 3 37 -56 0 -56 0 3 -37z m92 -3 c1
-22 -4 -25 -37 -28 -26 -2 -39 1 -43 12 -11 28 2 41 42 41 34 0 38 -3 38 -25z"/>
<path d="M608 919 c-10 -6 -18 -17 -18 -24 0 -26 -40 -18 -41 8 -1 20 -2 20
-7 2 l-5 -20 -8 20 c-7 19 -8 19 -8 -1 -1 -15 7 -24 23 -28 33 -8 89 4 103 23
11 14 12 14 13 -1 0 -25 30 -23 30 2 0 16 -6 19 -30 16 -16 -2 -31 0 -32 5 -2
4 -11 3 -20 -2z m7 -19 c3 -5 1 -10 -4 -10 -6 0 -11 5 -11 10 0 6 2 10 4 10 3
0 8 -4 11 -10z"/>
<path d="M701 902 c0 -24 1 -25 9 -7 7 17 9 17 9 3 1 -10 5 -18 9 -18 16 0 5
43 -11 46 -12 2 -17 -5 -16 -24z"/>
<path d="M1772 900 c0 -19 2 -27 5 -17 2 9 2 25 0 35 -3 9 -5 1 -5 -18z"/>
<path d="M4148 905 c-6 -30 -3 -43 8 -33 3 4 4 19 2 35 l-3 28 -7 -30z"/>
<path d="M356 912 c-8 -14 6 -53 18 -49 18 6 20 57 2 57 -8 0 -17 -4 -20 -8z
m24 -12 c0 -5 -5 -10 -11 -10 -5 0 -7 5 -4 10 3 6 8 10 11 10 2 0 4 -4 4 -10z"/>
<path d="M400 901 c0 -12 6 -21 16 -21 9 0 14 7 12 17 -5 25 -28 28 -28 4z"/>
<path d="M441 898 c0 -22 1 -22 9 -3 6 14 9 15 9 5 1 -9 11 -17 26 -18 19 -1
25 3 25 18 0 22 -25 28 -33 8 -4 -10 -6 -10 -6 0 -2 23 -31 13 -30 -10z"/>
<path d="M4246 879 c-3 -17 -6 -44 -6 -60 0 -27 -3 -29 -39 -29 -37 0 -40 2
-44 33 -4 31 -4 31 -5 -5 l-2 -38 49 0 48 0 7 62 c7 67 2 88 -8 37z"/>
<path d="M2310 851 c0 -17 2 -31 4 -31 8 0 13 51 5 56 -5 3 -9 -9 -9 -25z"/>
<path d="M2391 860 c0 -8 4 -22 9 -30 12 -18 12 -2 0 25 -6 13 -9 15 -9 5z"/>
<path d="M177 824 c-4 -4 -7 -22 -7 -40 0 -37 21 -49 76 -42 27 3 29 6 29 43
l0 40 -45 3 c-25 2 -49 0 -53 -4z m88 -24 c9 -29 -2 -40 -40 -40 -38 0 -49 11
-40 40 5 15 15 20 40 20 25 0 35 -5 40 -20z"/>
<path d="M1781 813 c-1 -16 6 -24 23 -29 33 -8 58 -2 64 15 3 10 0 11 -9 5
-30 -19 -59 -15 -69 8 l-9 23 0 -22z"/>
<path d="M463 795 c0 -14 3 -25 8 -25 5 0 9 11 9 25 0 14 -4 25 -9 25 -5 0 -8
-11 -8 -25z"/>
<path d="M751 788 c0 -27 2 -29 8 -13 l8 20 5 -20 c5 -17 6 -18 7 -2 0 10 -6
25 -14 33 -13 14 -15 12 -14 -18z"/>
<path d="M356 803 c-3 -3 -6 -16 -6 -27 1 -21 1 -21 15 -2 15 20 15 20 16 0 0
-18 1 -18 9 1 l9 20 0 -20 c1 -16 3 -17 11 -5 6 9 6 18 0 24 -12 12 -45 18
-54 9z"/>
<path d="M420 799 c0 -5 5 -7 10 -4 6 3 10 2 10 -4 0 -5 -6 -11 -12 -14 -7 -2
-10 -8 -5 -12 11 -13 31 11 24 29 -7 18 -27 22 -27 5z"/>
<path d="M494 796 c-6 -17 2 -36 17 -36 12 0 12 37 -1 45 -6 3 -13 -1 -16 -9z"/>
<path d="M530 792 c0 -21 18 -42 37 -42 20 0 15 17 -7 23 -13 3 -18 10 -14 21
3 9 1 16 -5 16 -6 0 -11 -8 -11 -18z"/>
<path d="M590 795 c-10 -12 -9 -16 5 -21 13 -5 14 -9 3 -15 -10 -7 -9 -9 5 -9
11 0 17 8 17 24 0 31 -14 40 -30 21z"/>
<path d="M634 796 c-6 -17 2 -36 17 -36 12 0 12 37 -1 45 -6 3 -13 -1 -16 -9z"/>
<path d="M671 788 c-1 -19 4 -28 14 -28 9 0 15 9 14 23 0 21 -1 21 -8 2 -8
-19 -9 -18 -13 5 -5 25 -5 25 -7 -2z"/>
<path d="M714 795 c-7 -19 12 -43 23 -30 5 4 2 10 -6 13 -10 3 -10 6 -1 12 9
5 9 9 1 14 -6 4 -14 0 -17 -9z"/>
<path d="M794 796 c-6 -17 2 -36 17 -36 12 0 12 37 -1 45 -6 3 -13 -1 -16 -9z"/>
<path d="M2395 800 c-5 -8 -21 -10 -41 -7 -21 4 -32 2 -29 -4 8 -13 72 -12 80
2 4 6 5 13 2 15 -3 3 -8 0 -12 -6z"/>
<path d="M1787 753 c3 -6 16 -9 31 -7 18 4 31 -1 39 -12 12 -16 13 -16 13 8 0
23 -3 25 -44 24 -29 -1 -42 -5 -39 -13z"/>
<path d="M2321 720 c1 -41 2 -42 9 -17 5 16 6 35 4 42 -4 10 1 12 18 8 13 -3
28 -10 34 -15 8 -5 13 -2 16 10 5 16 0 19 -38 18 l-44 -1 1 -45z"/>
<path d="M3600 753 c0 -5 20 -8 45 -8 25 0 45 3 45 7 0 5 -20 8 -45 8 -25 0
-45 -3 -45 -7z"/>
<path d="M4160 728 c0 -36 10 -32 14 6 2 14 -1 26 -5 26 -5 0 -9 -14 -9 -32z"/>
<path d="M4200 749 c-13 -9 -13 -10 1 -6 9 3 21 1 26 -4 7 -7 12 -5 16 5 7 19
-20 22 -43 5z"/>
<path d="M3602 693 c-1 -23 -5 -50 -8 -60 -5 -17 -5 -17 6 0 6 9 9 36 7 60
l-4 42 -1 -42z"/>
<path d="M177 714 c-4 -4 -7 -22 -7 -40 0 -37 21 -49 76 -42 27 3 29 6 29 43
l0 40 -45 3 c-25 2 -49 0 -53 -4z m84 -14 c6 -43 4 -45 -38 -48 -36 -3 -43 0
-43 15 0 11 5 24 12 31 15 15 67 16 69 2z"/>
<path d="M459 691 c6 -10 7 -21 4 -25 -3 -3 -1 -6 5 -6 7 0 12 11 12 25 0 16
-6 25 -15 25 -12 0 -13 -4 -6 -19z"/>
<path d="M530 687 c0 -24 23 -43 45 -38 6 2 17 4 25 5 8 2 17 16 18 32 4 28 4
29 -17 10 -11 -10 -18 -23 -15 -28 4 -5 -4 -8 -17 -6 -16 2 -23 9 -21 20 1 9
-2 19 -8 23 -6 4 -10 -4 -10 -18z"/>
<path d="M696 704 c7 -3 10 -15 7 -27 -4 -18 -3 -19 6 -7 9 13 11 13 11 -2 0
-10 4 -18 9 -18 12 0 1 43 -13 52 -6 4 -15 7 -21 7 -5 0 -5 -3 1 -5z"/>
<path d="M353 685 c-8 -22 6 -33 17 -15 9 13 10 13 10 0 0 -13 1 -13 10 0 7
11 10 11 10 2 0 -7 5 -10 11 -6 8 4 8 9 0 17 -17 17 -51 18 -58 2z"/>
<path d="M425 690 c-3 -5 0 -10 7 -10 10 0 9 -3 -2 -10 -8 -5 -11 -12 -8 -15
10 -10 28 4 28 20 0 18 -17 28 -25 15z"/>
<path d="M494 686 c-6 -17 2 -36 17 -36 12 0 12 37 -1 45 -6 3 -13 -1 -16 -9z"/>
<path d="M635 687 c-4 -10 -5 -21 -1 -24 3 -4 6 0 6 7 0 9 6 8 20 -5 17 -16
20 -16 26 -2 9 24 -4 41 -21 27 -10 -8 -14 -7 -18 2 -3 9 -7 8 -12 -5z m45
-17 c0 -5 -2 -10 -4 -10 -3 0 -8 5 -11 10 -3 6 -1 10 4 10 6 0 11 -4 11 -10z"/>
<path d="M4161 674 c0 -11 3 -14 6 -6 3 7 2 16 -1 19 -3 4 -6 -2 -5 -13z"/>
<path d="M1780 644 c0 -19 4 -33 8 -30 8 5 4 66 -4 66 -2 0 -4 -16 -4 -36z"/>
<path d="M1869 650 c-3 -20 -10 -25 -31 -25 -14 1 -24 -3 -22 -7 3 -4 16 -8
30 -8 26 0 38 18 32 47 -4 14 -6 12 -9 -7z"/>
<path d="M2315 640 c3 -5 8 -10 11 -10 2 0 4 5 4 10 0 6 -5 10 -11 10 -5 0 -7
-4 -4 -10z"/>
<path d="M4152 630 c0 -14 2 -19 5 -12 2 6 2 18 0 25 -3 6 -5 1 -5 -13z"/>
<path d="M2320 610 c0 -13 11 -13 30 0 12 8 11 10 -7 10 -13 0 -23 -4 -23 -10z"/>
<path d="M174 596 c-3 -8 -4 -27 -2 -43 3 -25 8 -28 41 -31 49 -4 69 12 65 52
-3 29 -6 31 -51 34 -34 2 -49 -1 -53 -12z m86 -11 c6 -8 9 -23 6 -33 -5 -15
-13 -18 -43 -13 -34 6 -51 30 -37 53 9 13 61 9 74 -7z"/>
<path d="M3603 603 c9 -2 25 -2 35 0 9 3 1 5 -18 5 -19 0 -27 -2 -17 -5z"/>
<path d="M389 588 c-1 -7 -1 -16 0 -20 0 -5 -4 -8 -10 -8 -6 0 -9 7 -5 15 6
17 -9 21 -19 5 -10 -17 14 -39 35 -33 11 3 18 9 15 13 -3 5 -1 11 5 15 5 3 10
-1 10 -10 0 -9 4 -14 9 -10 5 3 13 0 17 -6 5 -9 11 -7 21 6 18 26 16 40 -4 24
-11 -10 -14 -10 -9 -1 4 6 2 12 -3 12 -6 0 -11 -5 -11 -12 0 -6 -7 -4 -18 5
-22 20 -32 21 -33 5z"/>
<path d="M507 587 c-3 -8 -1 -20 4 -28 6 -10 9 -7 9 14 0 29 -5 35 -13 14z"/>
<path d="M530 576 c0 -18 7 -25 28 -29 31 -6 29 -7 34 17 1 10 -3 21 -11 24
-9 3 -11 0 -7 -9 4 -8 1 -6 -7 4 -20 24 -37 21 -37 -7z m17 -8 c-3 -8 -6 -5
-6 6 -1 11 2 17 5 13 3 -3 4 -12 1 -19z"/>
<path d="M790 591 c0 -4 -11 -7 -25 -6 -15 2 -25 -2 -25 -10 0 -7 -6 -15 -12
-18 -7 -2 -10 -8 -5 -12 4 -5 18 2 31 14 15 14 26 19 31 12 3 -6 -1 -11 -10
-11 -9 0 -14 -4 -11 -9 3 -5 15 -7 26 -4 11 3 18 9 15 13 -3 5 -1 11 5 15 6 4
8 11 5 16 -8 11 -25 12 -25 0z"/>
<path d="M1778 594 c-15 -15 -7 -19 44 -22 36 -1 49 1 42 8 -14 14 -77 24 -86
14z"/>
<path d="M2343 590 c-25 -10 -30 -44 -12 -70 8 -11 9 -5 4 23 -5 31 -3 37 12
37 10 0 29 3 43 6 17 4 21 3 12 -4 -11 -7 -11 -10 2 -15 9 -4 16 -11 16 -17 0
-6 -5 -8 -12 -4 -7 4 -8 3 -4 -5 4 -6 12 -9 17 -6 5 4 9 -2 10 -12 0 -10 3
-13 5 -7 2 6 -2 27 -11 47 -16 39 -36 45 -82 27z"/>
<path d="M636 582 c-8 -14 6 -53 18 -49 18 6 20 57 2 57 -8 0 -17 -4 -20 -8z
m24 -12 c0 -5 -5 -10 -11 -10 -5 0 -7 5 -4 10 3 6 8 10 11 10 2 0 4 -4 4 -10z"/>
<path d="M680 565 c0 -23 2 -24 20 -15 23 13 27 35 4 26 -8 -3 -12 -2 -9 4 3
6 1 10 -4 10 -6 0 -11 -11 -11 -25z"/>
<path d="M833 583 c-7 -2 -13 -12 -13 -20 0 -9 3 -13 7 -10 3 4 12 2 19 -4 15
-12 29 5 20 26 -6 15 -12 17 -33 8z"/>
<path d="M4188 578 c-16 -5 -28 -14 -28 -20 0 -7 5 -6 14 1 11 9 20 9 34 2 19
-10 32 -6 32 10 0 13 -25 16 -52 7z"/>
<path d="M3603 574 c4 -4 17 -8 30 -10 12 -1 25 -3 30 -3 4 -1 7 -6 7 -12 0
-5 -4 -8 -8 -5 -4 2 -8 -4 -8 -14 0 -10 4 -16 8 -14 12 8 10 -10 -3 -23 -6 -6
-9 -17 -6 -25 7 -20 24 32 23 72 -1 33 -3 35 -41 38 -22 2 -36 0 -32 -4z"/>
<path d="M480 560 c0 -5 5 -10 10 -10 6 0 10 5 10 10 0 6 -4 10 -10 10 -5 0
-10 -4 -10 -10z"/>
<path d="M1765 551 c-3 -5 -1 -12 5 -16 5 -3 10 1 10 9 0 18 -6 21 -15 7z"/>
<path d="M1861 544 c0 -11 3 -14 6 -6 3 7 2 16 -1 19 -3 4 -6 -2 -5 -13z"/>
<path d="M608 543 c7 -3 16 -2 19 1 4 3 -2 6 -13 5 -11 0 -14 -3 -6 -6z"/>
<path d="M3584 539 c-4 -7 -3 -9 4 -5 5 3 13 0 15 -6 4 -9 6 -10 6 -1 1 17
-16 25 -25 12z"/>
<path d="M4161 524 c0 -11 3 -14 6 -6 3 7 2 16 -1 19 -3 4 -6 -2 -5 -13z"/>
<path d="M1742 502 c-11 -25 -11 -25 4 -10 9 9 15 21 13 27 -2 6 -10 -2 -17
-17z"/>
<path d="M1835 499 c-4 -12 -3 -25 2 -30 4 -4 9 5 9 21 2 35 -2 38 -11 9z"/>
<path d="M174 486 c-3 -8 -4 -27 -2 -43 3 -27 6 -28 53 -28 l50 0 0 40 0 40
-48 3 c-34 2 -49 -1 -53 -12z m96 -32 c0 -21 -5 -24 -39 -24 -54 0 -67 41 -16
52 35 7 55 -3 55 -28z"/>
<path d="M2347 454 c3 -27 7 -51 9 -53 8 -9 3 75 -5 88 -5 8 -7 -5 -4 -35z"/>
<path d="M390 480 c0 -5 -7 -7 -15 -4 -17 7 -32 -23 -19 -36 12 -12 56 -1 48
11 -3 5 0 9 5 9 6 0 11 -5 11 -11 0 -5 4 -8 9 -4 5 3 13 0 17 -6 5 -9 11 -7
21 6 7 11 13 22 13 26 0 9 -20 6 -36 -4 -7 -4 -17 0 -24 8 -14 17 -30 20 -30
5z m0 -24 c0 -3 -4 -8 -10 -11 -5 -3 -10 -1 -10 4 0 6 5 11 10 11 6 0 10 -2
10 -4z"/>
<path d="M530 461 c0 -22 5 -26 31 -27 20 -1 26 2 17 7 -10 7 -9 9 5 9 19 0
23 15 6 26 -6 3 -15 0 -20 -7 -7 -11 -9 -11 -9 2 0 9 -7 16 -15 16 -9 0 -15
-10 -15 -26z"/>
<path d="M648 479 c-10 -5 -18 -17 -18 -24 0 -8 -7 -15 -15 -15 -8 0 -15 -4
-15 -10 0 -5 7 -10 15 -10 8 0 15 4 15 9 0 5 9 7 20 4 17 -5 20 0 20 26 0 17
-1 31 -2 31 -2 0 -11 -5 -20 -11z"/>
<path d="M746 482 c7 -4 13 -16 15 -26 3 -12 13 -20 27 -21 26 -2 36 9 28 32
-6 14 -9 14 -28 -3 -12 -11 -18 -13 -13 -5 7 13 -9 31 -30 31 -5 0 -5 -4 1 -8z"/>
<path d="M3546 472 c-4 -11 -15 -27 -26 -37 -11 -10 -20 -22 -20 -27 0 -13 35
23 49 50 7 13 10 26 8 29 -3 2 -8 -4 -11 -15z"/>
<path d="M685 472 c-3 -3 -5 -12 -4 -21 0 -12 3 -11 9 4 7 16 9 17 9 3 1 -21
15 -30 35 -22 16 6 22 33 9 35 -29 5 -53 5 -58 1z"/>
<path d="M4183 445 c0 -22 2 -30 4 -17 2 12 2 30 0 40 -3 9 -5 -1 -4 -23z"/>
<path d="M490 460 c-8 -5 -11 -12 -7 -17 5 -4 12 -1 17 6 6 11 9 10 13 -5 4
-16 5 -16 6 4 1 24 -6 27 -29 12z"/>
<path d="M4290 463 c0 -4 5 -15 10 -23 8 -13 10 -13 10 2 0 9 -4 20 -10 23 -5
3 -10 3 -10 -2z"/>
<path d="M3653 408 c0 -30 1 -30 10 -10 7 15 7 26 0 33 -6 6 -10 -1 -10 -23z"/>
<path d="M1766 396 c4 -11 2 -21 -7 -27 -10 -6 -11 -9 -1 -9 18 0 27 29 13 43
-9 9 -11 8 -5 -7z"/>
<path d="M3580 397 c0 -15 47 -33 58 -22 3 3 -2 5 -11 5 -8 0 -23 7 -31 16
-14 13 -16 13 -16 1z"/>
<path d="M1730 385 c-7 -9 -8 -15 -2 -15 5 0 12 7 16 15 3 8 4 15 2 15 -2 0
-9 -7 -16 -15z"/>
<path d="M2410 395 c0 -5 5 -17 10 -25 5 -8 10 -10 10 -5 0 6 -5 17 -10 25 -5
8 -10 11 -10 5z"/>
<path d="M4280 389 c0 -5 5 -7 10 -4 6 3 10 8 10 11 0 2 -4 4 -10 4 -5 0 -10
-5 -10 -11z"/>
<path d="M174 376 c-3 -8 -4 -27 -2 -43 3 -27 6 -28 53 -28 l50 0 0 40 0 40
-48 3 c-34 2 -49 -1 -53 -12z m93 -23 c3 -8 -1 -21 -8 -29 -27 -26 -87 4 -73
36 6 14 76 7 81 -7z"/>
<path d="M401 351 c-1 -29 1 -32 14 -21 12 10 22 9 49 -4 40 -19 56 -20 56 -5
0 6 -7 9 -15 5 -11 -4 -15 2 -15 27 0 23 -3 28 -9 17 -13 -19 -64 -19 -73 0
-4 9 -7 2 -7 -19z m79 -11 c0 -5 -2 -10 -4 -10 -3 0 -8 5 -11 10 -3 6 -1 10 4
10 6 0 11 -4 11 -10z"/>
<path d="M691 348 c0 -27 2 -29 8 -13 l8 20 5 -20 c5 -17 6 -18 7 -2 0 10 -6
25 -14 33 -13 14 -15 12 -14 -18z"/>
<path d="M350 335 c0 -27 1 -28 24 -19 24 9 20 44 -4 44 -15 0 -20 -7 -20 -25z"/>
<path d="M528 354 c-3 -3 -4 -14 -1 -25 8 -28 33 -24 33 6 0 23 -18 34 -32 19z"/>
<path d="M581 343 c10 -11 10 -14 2 -9 -7 4 -13 2 -13 -3 0 -6 7 -11 15 -11 8
0 15 9 15 20 0 12 -7 20 -16 20 -14 0 -15 -2 -3 -17z"/>
<path d="M611 343 c-1 -14 5 -23 14 -23 9 0 15 9 14 23 0 21 -1 21 -8 2 l-8
-20 -5 20 c-5 18 -6 18 -7 -2z"/>
<path d="M650 340 c0 -11 7 -20 15 -20 8 0 15 5 15 11 0 5 -4 7 -10 4 -5 -3
-10 -2 -10 4 0 5 6 12 13 14 7 3 5 6 -5 6 -12 1 -18 -6 -18 -19z"/>
<path d="M730 340 c0 -12 7 -20 18 -20 14 0 15 2 2 10 -10 6 -11 10 -2 10 6 0
12 5 12 10 0 6 -7 10 -15 10 -8 0 -15 -9 -15 -20z"/>
<path d="M170 231 c0 -45 4 -47 65 -43 l45 4 0 39 0 39 -55 0 -55 0 0 -39z
m90 14 c7 -8 10 -22 6 -30 -6 -16 -52 -20 -74 -7 -18 12 -5 40 21 45 12 2 25
5 28 6 4 0 12 -6 19 -14z"/>
<path d="M467 249 c-9 -6 -21 -8 -26 -5 -15 9 -41 -5 -41 -22 0 -8 3 -12 7 -9
3 4 13 1 21 -6 13 -10 14 -8 7 13 l-8 25 22 -19 c14 -13 37 -20 64 -20 39 -1
42 1 45 26 3 22 0 27 -12 22 -9 -3 -16 -15 -16 -25 0 -30 -38 -25 -42 5 -2 20
-6 23 -21 15z m13 -19 c0 -5 -5 -10 -11 -10 -5 0 -7 5 -4 10 3 6 8 10 11 10 2
0 4 -4 4 -10z"/>
<path d="M643 231 c-1 -22 -1 -23 6 -6 l8 20 5 -20 c5 -19 6 -19 7 1 0 12 -5
24 -12 27 -8 3 -13 -5 -14 -22z"/>
<path d="M350 220 c0 -33 11 -38 30 -15 15 18 6 45 -15 45 -10 0 -15 -10 -15
-30z"/>
<path d="M570 230 c0 -11 2 -20 4 -20 2 0 6 9 9 20 3 11 1 20 -4 20 -5 0 -9
-9 -9 -20z"/>
<path d="M597 236 c-7 -19 18 -42 28 -26 8 13 -1 40 -14 40 -5 0 -11 -6 -14
-14z"/>
<path d="M684 235 c-7 -17 4 -37 17 -30 12 8 12 45 -1 45 -6 0 -13 -7 -16 -15z"/>
<path d="M348 103 c138 -2 366 -2 505 0 138 1 25 2 -253 2 -278 0 -391 -1
-252 -2z"/>
</g>
</svg>
